/* XPM */
static char * pool_closed_xpm[] = {
"64 64 7 1",
" 	c #C0D470",
".	c #A4C263",
"+	c #FF0000",
"@	c #442525",
"#	c #09CEF3",
"$	c #E8EEAA",
"%	c #D2E077",
"                                                                ",
"                                                                ",
"                                  . .                           ",
"   ++++     .            . .       .               ....         ",
"  ++++++   .              .                       ......+++++   ",
"  +++++++  .                                      .....+++++++  ",
"  +++++++              @@@@@@@@@@@@@@@@           ....++++++++  ",
"  ++++++++        @@@@@################@@@@@@@@@@@@@@+++++++++  ",
"   +++++++@@@@@@@@@@@@@################@@@@@@@@@@@@@@+++++++++  ",
"   +++++++@@@@@@@@########################. .#######+++++++++   ",
"    +++++++################################.#######+++++++++.   ",
"    ++++++++#######################################++++++++@..  ",
"    ++++++++######################################+++++++++#@.  ",
"     ++++++++#######################.#.##########+++++++++##@   ",
"     @+++++++########################.###########++++++++@##@   ",
"    @#++++++++##################################++++++++####@   ",
"    @##++++++++################################+++++++++####@   ",
"    @##+++++++++##############################+++++++++#####@   ",
"    @###+++++++++###########################++++++++++######@   ",
"    @####+++++++++#########################+++++++++++######@   ",
"    @#####+++++++++#######################+++++++++++########@  ",
"    @##$###++++++++###################$#$+++++++++++#########@  ",
"    @#$#####++++++++###################$++++++++++###########@  ",
"   $@#$#####+++++++++##################++++++++++############@  ",
"    $@$######+++++++++###############+++++++++++#############@  ",
"    $@####$###+++++++++#############+++++++++++##############@  ",
"    $@#####$###++++++++############+++++++++++###############@  ",
"     @#####$####++++++++##########+++++++++++################@  ",
"     @#####$#####++++++++#########++++++++++#################@  ",
"     @###########+++++++++#######+++++++++###################@  ",
"     @############+++++++++#####++++++++#####################@  ",
"     @############+++++++++++##+++++++++#####################@  ",
"     @#############++++++++++++++++++++######################@  ",
"     @##############++++++++++++++++++#######################@  ",
"     @################+++++++++++++++########################@  ",
"     @######.##########+++++++++++++#########################@  ",
"     @#####.############+++++++++++##########################@  ",
"     @#####.#############+++++++++###########################@  ",
"    .@###################+++++++++###########################@  ",
"     @##################+++++++++++###########################@ ",
"     @####.#############++++++++++++##########################@ ",
"     @#################++++++++++++++#####.#.#################@ ",
"     @#############.#.++++++++++++++++#####.#############....#@ ",
"     @##############.++++++++++++++++++#################......@ ",
"     @###############++++++++##+++++++++################......@ ",
"      @#############++++++++####+++++++++################....#@ ",
"      @############++++++++#####++++++++++####################@ ",
"      @##########++++++++++######++++++++++###################@ ",
"      @#########+++++++++++#######++++++++++##################@ ",
"      @########+++++++++++#########+++++++++##################@ ",
"      @#####+++++++++++++###########+++++++++#################@ ",
"      @##++++++++++++++####$#$#######++++++++++####%%%%%######@ ",
"      @@++++++++++++++######$#########++++++++++##%%%%%%%#####@ ",
"      @+++++++++++++###################+++++++++++#%%%%%%####@  ",
"    +++++++++++++++####################$++++++++++++%%%%#####@  ",
"   +++++++++++++++@@@@@@@@@@@@###########++++++++++++######@@   ",
"  +++++++++++++               @@@@@@@@@@@@++++++++++++@@@@@%%   ",
"  ++++++++++                               ++++++++++++++%%%%%  ",
"  +++++++++$        $ $                      ++++++++++++++%%%  ",
"  ++++++++ $         $                        ++++++++++++++%   ",
"   +++++   $                                     +++++++++++    ",
"                                                 %++++++++++    ",
"                                                  %+++++++++    ",
"                                                      +++++     "};
