/* XPM */
static char * Capybara_xpm[] = {
"64 64 8 1",
" 	c #C0D470",
".	c #A4C263",
"+	c #381414",
"@	c #663931",
"#	c #D2E077",
"$	c #E8EEAA",
"%	c #000000",
"&	c #8F563B",
"                                                                ",
"                                                                ",
"                                  . .                           ",
"            .            . .       .               ....         ",
"           .              .                       .......       ",
"           .                                      ........      ",
"    .                                             ........      ",
"     .                                            ........      ",
"     .    .                                        ......       ",
"         .                                . .                   ",
"         .         . .                     .             ....   ",
"                    .                                   ......  ",
"                                                        ......  ",
"                                    . .                  ....   ",
"                                     .                          ",
"                                                                ",
"                                      ++                        ",
"                  @@@@@@              ++++                      ",
"               @@@@@@@@@@@@@          +++++@@@@                 ",
"            @@@@@@@@@@@@@@@@@@@@       ++@@@@@@@@@ #####        ",
"          @@@@@@@@@@@@@@@@@@@@@@@@@@    +@@@@@@@@@@@@@###       ",
"       $ @@@@@@@@@@@@@@@@@@@@@@@@@@@@@$ @@@@@%%%@@@@@@@@@       ",
"      $ @@@@@@@@@@@@@@@@@@@@@@@@@@@@@@@@@@@@%%%%%@@@@@@@@+      ",
"   $  $ @@@@@@@@@@@@@@@@@@@@@@@@@@@@@@@@@@@@@%%%@@@@@@@@@+%     ",
"    $ $ @@@@@@@@@@@@@@@@@@@@@@@@@@@@@@@@@@@@@@@@@@@@@@@@@++##   ",
"    $  @@@@@&&@@@@@@@@@@@@@@@@@@@@@@@@@@@@@@@@@@@@@@@@@@@@+###  ",
"    $ @@@@@@&&&@@@@@@@@@@@@@@@@@@@@@@@@@@@@@@@@@@@@@@@@@@++###  ",
"      @@@@@&&@&@@@@@@@@@@@@@@@@@@@@@@@@@@@@@@@@@@@@@@@@@@++##   ",
"      @@@@@@&&&@@@@@@@@@@@@@@@@@@@@@@@@@@@@@@@@@@@@@@@@@++      ",
"      @@@@@@@&&@@@@@@@@@@@@@@@@@@@@@@@@@@@@@@@@@@@@@@@@         ",
"      @@@@@@@&&&@@@@@@@@@@@@@@@@@@@&&&@@@@@@@@@@@@@@@@          ",
"      @@@@@@@@&&@@@@@@@@@@@@@@@@@@@@@&&@@@@@@@@@@@@             ",
"       @@@@@@@@&@@@@@@@@@@@@@@@@@@@@@@@&@@@@@@@@@               ",
"       @@@@@@@@&&@@@@@@@@@@@@@@@@@@@@@@@&@@@@@                  ",
"        @@@@@@@&&@@@@@@@@@@@@@@@@@@@@@@@&&@@@@                  ",
"        @@@@@@&&&@@@@@@@@@@@@@@@@@@@@@@@@&&@       ....         ",
"         @@@@@&@&@@@@@@@@@@@@@@@@@@@@@@@@@&       .......       ",
"         @@@@@@@&@@@@@@@@@@@@@@@@@@@@@@@@@        ........      ",
"    .    @@@@@@@@@@@@@@@@@@@@@@@@@@   @@@@        ........      ",
"     .   @@@@@   @@@@@@@@@@@@@@@@     @@@@        ........      ",
"     .   @@@@@    @@@@@@@@@@@@        @@@@         ......       ",
"         .@@@@       @@@@@@            @@@@ .                   ",
"         .@@@@@    . .                 @@@@.             ....   ",
"          @@@@@     .                   @@@             ......  ",
"           @@@@@                        @@@             ......  ",
"           @@@@@@                   . . @@@              ....   ",
"            @@@@@                    .  @@%%                    ",
"              @@%%                     @%%%%%                   ",
"              %%%%%                    %%%%%%                   ",
"                %                        %                      ",
"                                                                ",
"                           $ $                     #####        ",
"                            $                     #######       ",
"       $                              $ $         #######       ",
"      $                                $           #####        ",
"   $  $                                                         ",
"    $ $                                                  ####   ",
"    $     $                                            #######  ",
"    $      $        $ $                                #######  ",
"           $         $                            ###   #####   ",
"           $                                     #####          ",
"                                                 #####          ",
"                                                  ###           ",
"                                                                "};
