/* XPM */
static char * 0_Grass_Tiles_xpm[] = {
"120 120 4 1",
" 	c #C0D470",
".	c #A4C263",
"+	c #E8EEAA",
"@	c #D2E077",
"                                                                                                                        ",
"                                                                                                                        ",
"                                                                                                                        ",
"                                                                                                                        ",
"                                                                .. ..                                                   ",
"                                                                .. ..                                                   ",
"                      ..                       ..  .              .                             .......                 ",
"                     .                           ..                                           .............             ",
"                     .                           ..                                           .............             ",
"                     .                                                                        ...............           ",
"                     .                                                                        ...............           ",
"       ..                                                                                     ...............           ",
"       ..                                                                                     ...............           ",
"         ..                                                                                   ...............           ",
"         ..                                                                                   ...............           ",
"         ..        ..                                                                           ...........             ",
"         ..        ..                                                                           ...........             ",
"                 ..                                                            .. ..                                    ",
"                 ..                                                            .. ..                                    ",
"                 ..                 .  ..                                        .                         .......      ",
"                 ..                 .  ..                                        .                         .......      ",
"                                     ..                                                                  ...........    ",
"                                                                                                         ...........    ",
"                                                                                                         ...........    ",
"                                                                   ..  ..                                  .......      ",
"                                                                   ..  ..                                  .......      ",
"                                                                     ..                                                 ",
"                                                                     ..                                                 ",
"                                                                                                                        ",
"                                                                                                                        ",
"                                                                                                                        ",
"                                                                                                                        ",
"                                                                                                                        ",
"                                                                                                                        ",
"                                                                                                                        ",
"                                                                                                                        ",
"                                                   +  ++                                        @@@@@@@@@               ",
"                                                    ++                                        @@@@@@@@@@@@@             ",
"                                                    ++                                        @@@@@@@@@@@@@             ",
"             ++                                                        ++  ++                 @@@@@@@@@@@@@             ",
"             ++                                                        ++  ++                 @@@@@@@@@@@@@             ",
"           ++                                                            ++                     @@@@@@@@@               ",
"           ++                                                            ++                     @@@@@@@@@               ",
"      +    ++                                                                                                           ",
"      +    ++                                                                                                           ",
"       ++  ++                                                                                              @@@@@@@      ",
"       ++  ++                                                                                              @@@@@@@      ",
"       ++          ++                                                                                  @@@@@@@@@@@@@    ",
"       ++          ++                                                                                  @@@@@@@@@@@@@    ",
"       ++            +               ++  ++                                                            @@@@@@@@@@@@@    ",
"       ++            +               ++  ++                                                            @@@@@@@@@@@@@    ",
"                     +                 ++                                                     @@@@@      @@@@@@@@@      ",
"                     +                                                                      @@@@@@@@@                   ",
"                     +                                                                      @@@@@@@@@                   ",
"                                                                                            @@@@@@@@@                   ",
"                                                                                            @@@@@@@@@                   ",
"                                                                                              @@@@@                     ",
"                                                                                              @@@@@                     ",
"                                                                                                                        ",
"                                                                                                                        ",
"                                                                                                                        ",
"                                                                                                                        ",
"                                                                                                                        ",
"                                                                                                                        ",
"                                                                .. ..                                                   ",
"                                                                .. ..                                                   ",
"                      ..                       ..  .              .                             .......                 ",
"                     .                           ..                                           .............             ",
"                     .                           ..                                           .............             ",
"                     .                                                                        ...............           ",
"                     .                                                                        ...............           ",
"       ..                                                                                     ...............           ",
"       ..                                                                                     ...............           ",
"         ..                                                                                   ...............           ",
"         ..                                                                                   ...............           ",
"         ..        ..                                                                           ...........             ",
"         ..        ..                                                                           ...........             ",
"                 ..                                                            .. ..                                    ",
"                 ..                                                            .. ..                                    ",
"                 ..                 .  ..                                        .                         .......      ",
"                 ..                 .  ..                                        .                         .......      ",
"                                     ..                                                                  ...........    ",
"                                                                                                         ...........    ",
"                                                                                                         ...........    ",
"                                                                   ..  ..                                  .......      ",
"                                                                   ..  ..                                  .......      ",
"                                                                     ..                                                 ",
"                                                                     ..                                                 ",
"                                                                                                                        ",
"                                                                                                                        ",
"                                                                                                                        ",
"                                                                                                                        ",
"                                                                                                                        ",
"                                                                                                                        ",
"                                                                                                                        ",
"                                                                                                                        ",
"                                                   +  ++                                        @@@@@@@@@               ",
"                                                    ++                                        @@@@@@@@@@@@@             ",
"                                                    ++                                        @@@@@@@@@@@@@             ",
"             ++                                                        ++  ++                 @@@@@@@@@@@@@             ",
"             ++                                                        ++  ++                 @@@@@@@@@@@@@             ",
"           ++                                                            ++                     @@@@@@@@@               ",
"           ++                                                            ++                     @@@@@@@@@               ",
"      +    ++                                                                                                           ",
"      +    ++                                                                                                           ",
"       ++  ++                                                                                              @@@@@@@      ",
"       ++  ++                                                                                              @@@@@@@      ",
"       ++          ++                                                                                  @@@@@@@@@@@@@    ",
"       ++          ++                                                                                  @@@@@@@@@@@@@    ",
"       ++            +               ++  ++                                                            @@@@@@@@@@@@@    ",
"       ++            +               ++  ++                                                            @@@@@@@@@@@@@    ",
"                     +                 ++                                                     @@@@@      @@@@@@@@@      ",
"                     +                                                                      @@@@@@@@@                   ",
"                     +                                                                      @@@@@@@@@                   ",
"                                                                                            @@@@@@@@@                   ",
"                                                                                            @@@@@@@@@                   ",
"                                                                                              @@@@@                     ",
"                                                                                              @@@@@                     ",
"                                                                                                                        ",
"                                                                                                                        "};
