/* XPM */
static char * wall_xpm[] = {
"64 64 114 2",
"  	c None",
". 	c #5A3B27",
"+ 	c #868579",
"@ 	c #88877B",
"# 	c #5C402D",
"$ 	c #746F62",
"% 	c #716C60",
"& 	c #706A5E",
"* 	c #5E4532",
"= 	c #644E3D",
"- 	c #726E62",
"; 	c #726D61",
"> 	c #624937",
", 	c #614A38",
"' 	c #6A6357",
") 	c #675544",
"! 	c #918F88",
"~ 	c #929088",
"{ 	c #94928B",
"] 	c #99978F",
"^ 	c #665444",
"/ 	c #6D695F",
"( 	c #6D685F",
"_ 	c #5B4231",
": 	c #6C685E",
"< 	c #6C675E",
"[ 	c #6B675D",
"} 	c #6C665E",
"| 	c #6B665D",
"1 	c #6B655D",
"2 	c #6A655C",
"3 	c #6A665C",
"4 	c #593D2A",
"5 	c #6A645C",
"6 	c #53321E",
"7 	c #69645B",
"8 	c #69635B",
"9 	c #68635A",
"0 	c #676259",
"a 	c #68625A",
"b 	c #4F2913",
"c 	c #676159",
"d 	c #594A3D",
"e 	c #594A3E",
"f 	c #5C5247",
"g 	c #594A3C",
"h 	c #5A4A3D",
"i 	c #594B3E",
"j 	c #4F311E",
"k 	c #5C5147",
"l 	c #5D5247",
"m 	c #5D5248",
"n 	c #4F3625",
"o 	c #584132",
"p 	c #543624",
"q 	c #5E5146",
"r 	c #5D4D41",
"s 	c #5F5349",
"t 	c #563D2C",
"u 	c #563B2A",
"v 	c #553726",
"w 	c #553827",
"x 	c #583F30",
"y 	c #6C675F",
"z 	c #726E69",
"A 	c #573F30",
"B 	c #5B483B",
"C 	c #573C2D",
"D 	c #543523",
"E 	c #5B483A",
"F 	c #584030",
"G 	c #573E2D",
"H 	c #5A4739",
"I 	c #5B493C",
"J 	c #5D4D42",
"K 	c #5B473A",
"L 	c #69645C",
"M 	c #6C685F",
"N 	c #5E4E43",
"O 	c #5C4B40",
"P 	c #665F58",
"Q 	c #5C4B3F",
"R 	c #5C493D",
"S 	c #655C55",
"T 	c #5E4F45",
"U 	c #655D56",
"V 	c #5E4F44",
"W 	c #5C4B3E",
"X 	c #5D5044",
"Y 	c #5D4F43",
"Z 	c #5D4E43",
"` 	c #5D4E42",
" .	c #5C4D41",
"..	c #573D2D",
"+.	c #573E2E",
"@.	c #56321C",
"#.	c #767469",
"$.	c #5E3B25",
"%.	c #655444",
"&.	c #5C4939",
"*.	c #5D4A3B",
"=.	c #5D493A",
"-.	c #615A4F",
";.	c #615A4E",
">.	c #86847B",
",.	c #60594D",
"'.	c #615B4F",
").	c #5C4A3B",
"!.	c #666057",
"~.	c #737067",
"{.	c #574739",
"].	c #57493C",
"^.	c #716D64",
"/.	c #502D18",
". . . . . . . . . . . . . . .       . . . . . . . . . . . . . . . . . . . . . . . . . . . . . .   . . . . . . . . . . . . . . . ",
"+ + + + + + + + + + + + + + @ .   # $ % & & + + + + + + + + + + + + + + + + + + + + + + + + @ @ * + + + + + + + + + + + + + + + ",
"+ + + + + + + + + + + + + + + @ = - ; % + + + + + + + + + + + + + + + + + + + + + + + + + + + @ > + + + + + + + + + + + + + + + ",
"+ + + + + + + + + + + + + + + + , ' ' + + + + + + + + + + + + + + + + + + + + + + + + + + + + + ) + + + + + + + + + + + + + + + ",
"! ! ! ! ! ! ! ! ! ! ! ~ { ] ] ] ^ { ] ] ] { { { { { { { { { { { ! ! ! ! ! ! ! ! ! ! ! ~ { ] ] ] ^ { ] ] ] { { { { { { { { { { { ",
"/ / / ( ( ( ( ( ( ( / / / / / ( _ ( ( ( : ( ( ( ( ( < : : : : : / / / ( ( ( ( ( ( ( / / / / / ( _ ( ( ( : ( ( ( ( ( < : : : : : ",
"( ( ( ( ( ( ( ( ( ( ( ( ( / ( ( _ ( ( : : : ( ( ( : < < < < < < ( ( ( ( ( ( ( ( ( ( ( ( ( / ( ( _ ( ( : : : ( ( ( : < < < < < < ",
"( ( ( ( ( ( ( ( : : : : : : < < _ ( : : < < : : : < < < < < < < ( ( ( ( ( ( ( ( : : : : : : < < _ ( : : < < : : : < < < < < < < ",
"( : : : : : : : : : : < < < < < _ < < < < < [ [ < < < < < } | | ( : : : : : : : : : : < < < < < _ < < < < < [ [ < < < < < } | | ",
"< < < < < < < < < < < [ [ [ [ [ _ | | | | | | | | | | | | | | | < < < < < < < < < < < [ [ [ [ [ _ | | | | | | | | | | | | | | | ",
"[ | | | | | | | | | | | | | | | _ | | | | | 1 1 2 2 2 2 3 3 3 3 [ | | | | | | | | | | | | | | | _ | | | | | 1 1 2 2 2 2 3 3 3 3 ",
"2 2 2 2 2 2 2 2 2 2 2 2 1 1 1 1 4 1 1 2 5 5 5 5 5 5 5 5 2 2 2 2 2 2 2 2 2 2 2 2 2 2 2 2 1 1 1 1 4 1 1 2 5 5 5 5 5 5 5 5 2 2 2 2 ",
"2 2 2 2 2 2 2 2 2 2 2 2 2 2 5 2 6 7 7 7 7 7 7 7 7 7 7 7 7 7 7 7 2 2 2 2 2 2 2 2 2 2 2 2 2 2 5 2 6 7 7 7 7 7 7 7 7 7 7 7 7 7 7 7 ",
"7 7 5 7 7 7 7 7 7 7 7 7 7 7 7 7 6 8 8 8 8 8 8 7 7 7 7 7 7 7 7 7 7 7 5 7 7 7 7 7 7 7 7 7 7 7 7 7 6 8 8 8 8 8 8 7 7 7 7 7 7 7 7 7 ",
"8 8 8 8 8 8 8 8 8 8 8 8 8 8 9 9 6 9 9 9 9 9 9 9 9 9 9 9 9 9 8 8 8 8 8 8 8 8 8 8 8 8 8 8 8 8 9 9 6 9 9 9 9 9 9 9 9 9 9 9 9 9 8 8 ",
"0 0 0 0 0 0 0 a 0 a a a 9 9 9 a 6 a a a a a a a a a 9 9 a 9 9 9 0 0 0 0 0 0 0 a 0 a a a 9 9 9 a b a a a a a a a a a 9 9 a 9 9 9 ",
"c c c c c c c c c c c c c c c c 6 c c c c c c c c c c c c c c c c c c c c c c c c c c c c 9 9 b b c c c c c c c c c c c c c c c ",
"c c c c c c c c c c c c c c c c b c c c c c c c c c c c c c c c c c c c c c c c c c c c 9 9 b d e b c c c c c c c c c c c c c c ",
"b b b b b b b b b b b b b b b b f b b b b b b b b b b b b b b b b b b b b b b b b b b b b b g g h i b b b b b b b b b b b b b b ",
"f f f f f f f f f f f f f f f f f f f f f f f j k k f l l l l m f f f f f f f f f f f f f f f f f f f f f f f j k k f l l l l m ",
"f f f f f f f f f f f f f f f f f f f f f f f j f f l l l l l m f f f f f f f f f f f f f f f f f f f f f f f j f f l l l l l m ",
"f f f f f f f f f f f f f f f f f f f f f f f n f f l l l l l m f f f f f f f f f f f f f f f f f f f f f f f n f f l l l l l m ",
"f f f f f f f f f f f f f f f f f f f f f f f n f f f l l l l m f f f f f f f f f f f f f f f f f f f f f f f n f f f l l l l m ",
"f f f f f f f f f f f f f f f f f f f f f f f n f f f l l l l m f f f f f f f f f f f f f f f f f f f f f f f n f f f l l l l m ",
"f f f f f f f f f f f f f f f f f f f f f f f n k k f l l l l l f f f f f f f f f f f f f f f f f f f f f f f n k k f l l l l l ",
"c c c c c c c c c c c c c c c c c c c c c c c o c c c c c c c c c c c c c c c c c c c c c c c c c c c c c c c o c c c c c c c c ",
"c c c c c c c c c c c c c c c c c c c c c c c p c c c c c c c c c c c c c c c c c c c c c c c c c c c c c c c p c c c c c c c c ",
"q q q q q r r r q q q s s s s s s s s o o t u v w x s s s s s s q q q q q r r r q q q s s s s s s s s o o t u v w x s s s s s s ",
"( ( ( ( ( ( r y y y y y y y y y y y y y y y y y y y y y y y y y ( ( ( ( ( ( r z z z z z z z z z z z z z z z z z z z z z z z z z ",
"c c c c c c r c c c c c c c c c c c c c c c c c c c c c c c c c c c c c c c r c c c c c c c c c c c c c c c c c c c c c c c c c ",
"c c c c c c r c c c c c c c c c c c c c c c c c c c c c c c c c c c c c c c r c c c c c c c c c c c c c c c c c c c c c c c c c ",
"c c c c c c r c c c c c c c c c c c c c c c c c c c c c c c c c c c c c c c r c c c c c c c c c c c c c c c c c c c c c c c c c ",
"c c c c c c r c c c c c c c c c c c c c c c c c c c c c c c c c c c c c c c r c c c c c c c c c c c c c c c c c c c c c c c c c ",
"c c c c c c r c c c c c c c c c c c c c c c c c c c c c c c c c c c c c c c r c c c c c c c c c c c c c c c c c c c c c c c c c ",
"c c c c c c o c c c c c c c c c c c c c c c c c c c c c c c c c c c c c c c o c c c c c c c c c c c c c c c c c c c c c c c c c ",
"c c c c c c A c c c c c c c c c c c c c c c c c c c c c c c c c c c c c c c A c c c c c c c c c c c c c c c c c c c c c c c c c ",
"B B B C C p D v C s s s s s s B E F F G G G G G G G u B B B B B B B B C C p D v C s s s s s s s s s s s H B I J I I K s s s s s ",
"L L L L L L L L L L L L L L L L M M M M B N N N N y y y y M M M M M M M M M M M M M M M M M M M M M M M M y < O y y y y y y y y ",
"P P P P P P P P P P P P P P P P P P P P M H N N P P P P P P P P P P P P P P P P P P P P P P P P P P P P P P P Q P P P P P P P P ",
"P P P P P P P P P P P P P P P P P P P P P M H N P P P P P P P P P P P P P P P P P P P P P P P P P P P P P P P R P P P P P P P P ",
"P P P P P P P P P P P P P P P P P P P P P P M H S P P P P P P P P P P P P P P P P P P P P P P P P P P P P P P T S P P P P P P P ",
"P P P P P P P P P P P P P P P P P P P P P P M H U P P P P P P P P P P P P P P P P P P P P P P P P P P P P P P T U P P P P P P P ",
"P P P P P P P P P P P P P P P P P P P P P P P H P P P P P P P P P P P P P P P P P P P P P P P P P P P P P P P V P P P P P P P P ",
"P P P P P P P P P P P P P P P P P P P P P P P H P P P P P P P P P P P P P P P P P P P P P P P P P P P P P P P D P P P P P P P P ",
"P P P U P P P P P P P P P P P P P P P P P P P D P P P P P P P P P P P U P P P P P P P P P P P P P P P P P P P D P P P P P P P P ",
"s s s W W I W W X X X X Y Z ` ` ` ` ` J D D D D D D  . . . . . .s s s W W I W W X X X X Y Z ` ` ` ` ` J D D D D D D  . . . . . .",
"y y y y y y W y y y y y y y y y y y y y y y y y y y y y y y y y y y y y y y W y y y y y y y y y y y y y y y y y y y y y y y y y ",
"P P P P P P W P P P P P P P P P P P P P P P P P P P P P P P P P P P P P P P W P P P P P P P P P P P P P P P P P P P P P P P P P ",
"P P P P P P W P P P P P P P P P P P P P P P P P P P P P P P P P P P P P P P W P P P P P P P P P P P P P P P P P P P P P P P P P ",
"P P P P P P q P P P P P P P P P P P P P P P P P P P P P P P P P P P P P P P q P P P P P P P P P P P P P P P P P P P P P P P P P ",
"P P P P P P s P P P P P P P P P P P P P P P P P P P P P P P P P P P P P P P s P P P P P P P P P P P P P P P P P P P P P P P P P ",
"P P P P P P o P P P P P P P P P P P P P P P P P P P P P P P P P P P P P P P o P P P P P P P P P P P P P P P P P P P P P P P P P ",
"P P P P P P ..P P P P P P P P P P P P P P P P P P P P P P P P P P P P P P P ..P P P P P P P P P P P P P P P P P P P P P P P P P ",
"P P P P P P +.P P P P P P P P P P P P P P P P P P P P P P P P P P P P P P P +.P P P P P P P P P P P P P P P P P P P P P P P P P ",
"@.@.@.@.@.@.@.@.@.@.@.@.@.@.@.@.P @.@.@.@.@.@.@.@.@.@.@.@.@.@.@.@.@.@.@.@.@.@.@.@.@.@.@.@.@.@.@.P @.@.@.@.@.@.@.@.@.@.@.@.@.@.@.",
"#.#.#.#.#.#.#.#.#.#.#.#.#.#.#.#.$.#.#.#.#.#.#.#.#.#.#.#.#.#.#.#.#.#.#.#.#.#.#.#.#.#.#.#.#.#.#.#.b #.#.#.#.#.#.#.#.#.#.#.#.#.#.#.",
"#.#.#.#.#.#.#.#.#.#.#.#.#.#.#.#.%.#.#.#.#.#.#.#.#.#.#.#.#.#.#.#.#.#.#.#.#.#.#.#.#.#.#.#.#.#.#.&.b #.#.#.#.#.#.#.#.#.#.#.#.#.#.#.",
"#.#.#.#.#.#.#.#.#.#.#.#.#.#.#.#.%.#.#.#.#.#.#.#.#.#.#.#.#.#.#.#.#.#.#.#.#.#.#.#.#.#.#.#.#.#.*.=.b #.#.#.#.#.#.#.#.#.#.#.#.#.#.#.",
"#.#.#.#.#.#.#.#.#.#.#.#.#.#.#.#.%.#.#.#.#.#.#.#.#.#.#.#.#.#.#.#.#.#.#.#.#.#.#.#.#.#.#.-.;.=.*.*.b #.#.#.#.#.#.#.#.#.#.#.#.#.#.#.",
">.>.>.>.>.>.>.>.>.>.>.>.>.>.>.>.%.>.>.>.>.>.>.>.>.>.>.>.>.>.>.>.>.>.>.>.>.>.>.>.>.>.,.'.'.,.,.).b >.>.>.>.>.>.>.>.>.>.>.>.>.>.>.",
"!.!.!.!.!.!.!.!.!.!.!.!.!.!.!.!.%.!.!.!.!.!.!.!.!.!.!.!.!.!.!.!.!.!.!.!.!.!.!.!.!.!.~.,.,.,.{.].b !.!.!.!.!.!.!.!.!.!.!.!.!.!.!.",
"!.!.!.!.!.!.!.!.!.!.!.!.!.!.!.!.%.!.!.!.!.!.!.!.!.!.!.!.!.!.!.!.!.!.!.!.!.!.!.!.!.!.!.( ,.{.{.b b !.!.!.!.!.!.!.!.!.!.!.!.!.!.!.",
"!.!.!.!.!.!.!.!.!.!.!.!.!.!.!.!.b !.!.!.!.!.!.!.!.!.!.!.!.!.!.!.!.!.!.!.!.!.!.!.!.!.!.^.{.b b     /.!.!.!.!.!.!.!.!.!.!.!.!.!.!.",
"b b b b b b b b b b b b b b b b b b b b b b b b b b b b b b b b b b b b b b b b b b b b b           b b b b b b b b b b b b b b "};
