/* XPM */
static char * Apple_xpm[] = {
"64 64 6 1",
" 	c #C0D470",
".	c #A4C263",
"+	c #000000",
"@	c #B20C0C",
"#	c #D2E077",
"$	c #E8EEAA",
"                                                                ",
"                                                                ",
"                                  . .                           ",
"            .            . .       .               ....         ",
"           .              .                       .......       ",
"           .                                      ........      ",
"    .                                             ........      ",
"     .                                            ........      ",
"     .    .                    ++                  ......       ",
"         .                    +           . .                   ",
"         .         . .       +             .             ....   ",
"                    .       +                           ......  ",
"                            +                           ......  ",
"              @@@@@        +        . .                  ....   ",
"             @@@@@@@@@     +    @@@@@@@@@@@                     ",
"            @@@@@@@@@@@    + @@@@@@@@@@@@@@@@                   ",
"           @@@@@@@@@@@@@@  +@@@@@@@@@@@@@@@@@@@                 ",
"           @@@@@@@@@@@@@@@@+@@@@@@@@@@@@@@@@@@@@@               ",
"          @@@@@@@@@@@@@@@@@@@@@@@@@@@@@@@@@@@@@@@@              ",
"          @@@@@@@@@@@@@@@@@@@@@@@@@@@@@@@@@@@@@@@@@#####        ",
"          @@@@@@@@@@@@@@@@@@@@@@@@@@@@@@@@@@@@@@@@@@#####       ",
"       $ @@@@@@@@@@@@@@@@@@@@@@@@@@@@@@@@@@@@@@@@@@@@####       ",
"      $  @@@@@@@@@@@@@@@@@@@@@@@@@@@@@@@@@@@@@@@@@@@@###        ",
"   $  $  @@@@@@@@@@@@@@@@@@@@@@@@@@@@@@@@@@@@@@@@@@@@@          ",
"    $ $  @@@@@@@@@@@@@@@@@@@@@@@@@@@@@@@@@@@@@@@@@@@@@   ####   ",
"    $   @@@@@@@@@@@@@@@@@@@@@@@@@@@@@@@@@@@@@@@@@@@@@@ #######  ",
"    $   @@@@@@@@@@@@@@@@@@@@@@@@@@@@@@@@@@@@@@@@@@@@@@ #######  ",
"        @@@@@@@@@@@@@@@@@@@@@@@@@@@@@@@@@@@@@@@@@@@@@@  #####   ",
"        @@@@@@@@@@@@@@@@@@@@@@@@@@@@@@@@@@@@@@@@@@@@@@          ",
"        @@@@@@@@@@@@@@@@@@@@@@@@@@@@@@@@@@@@@@@@@@@@@@          ",
"       @@@@@@@@@@@@@@@@@@@@@@@@@@@@@@@@@@@@@@@@@@@@@@@          ",
"       @@@@@@@@@@@@@@@@@@@@@@@@@@@@@@@@@@@@@@@@@@@@@@@          ",
"       @@@@@@@@@@@@@@@@@@@@@@@@@@@@@@@@@@@@@@@@@@@@@@@          ",
"       @@@@@@@@@@@@@@@@@@@@@@@@@@@@@@@@@@@@@@@@@@@@@@@          ",
"       @@@@@@@@@@@@@@@@@@@@@@@@@@@@@@@@@@@@@@@@@@@@@@@          ",
"       @@@@@@@@@@@@@@@@@@@@@@@@@@@@@@@@@@@@@@@@@@@@@@@.         ",
"       @@@@@@@@@@@@@@@@@@@@@@@@@@@@@@@@@@@@@@@@@@@@@@@...       ",
"       @@@@@@@@@@@@@@@@@@@@@@@@@@@@@@@@@@@@@@@@@@@@@@@....      ",
"    .  @@@@@@@@@@@@@@@@@@@@@@@@@@@@@@@@@@@@@@@@@@@@@@@....      ",
"     . @@@@@@@@@@@@@@@@@@@@@@@@@@@@@@@@@@@@@@@@@@@@@@@....      ",
"     .  @@@@@@@@@@@@@@@@@@@@@@@@@@@@@@@@@@@@@@@@@@@@@@...       ",
"        @@@@@@@@@@@@@@@@@@@@@@@@@@@@@@@@@@@@@@@@@@@@@@          ",
"        @@@@@@@@@@@@@@@@@@@@@@@@@@@@@@@@@@@@@@@@@@@@@@   ....   ",
"         @@@@@@@@@@@@@@@@@@@@@@@@@@@@@@@@@@@@@@@@@@@@   ......  ",
"          @@@@@@@@@@@@@@@@@@@@@@@@@@@@@@@@@@@@@@@@@@@   ......  ",
"           @@@@@@@@@@@@@@@@@@@@@@@@@@@@@@@@@@@@@@@@@@    ....   ",
"            @@@@@@@@@@@@@@@@@@@@@@@@@@@@@@@@@@@@@@@@            ",
"             @@@@@@@@@@@@@@@@@@@@@@@@@@@@@@@@@@@@@@@            ",
"              @@@@@@@@@@@@@@@@@@@@@@@@@@@@@@@@@@@@@             ",
"               @@@@@@@@@@@@@@@@@@@@@@@@@@@@@@@@@@               ",
"                 @@@@@@@@@@@@@@@@@@@@@@@@@@@@@@@                ",
"                  @@@@@@@@@@@@@@@@@@@@@@@@@@@@@    #####        ",
"                    @@@@@@@@@@@@@@@@@@@@@@@       #######       ",
"       $               @@@@@@@@@@@@@@@@ $         #######       ",
"      $                   @@@@@@@@     $           #####        ",
"   $  $                                                         ",
"    $ $                                                  ####   ",
"    $     $                                            #######  ",
"    $      $        $ $                                #######  ",
"           $         $                            ###   #####   ",
"           $                                     #####          ",
"                                                 #####          ",
"                                                  ###           ",
"                                                                "};
