/* XPM */
static char * Collectible_xpm[] = {
"64 64 497 2",
"  	c #72751B",
". 	c #807F72",
"+ 	c #7C7B6E",
"@ 	c #88867D",
"# 	c #848279",
"$ 	c #64604B",
"% 	c #87867D",
"& 	c #87857C",
"* 	c #787B21",
"= 	c #7F8226",
"- 	c #86847B",
"; 	c #838178",
"> 	c #8D8B83",
", 	c #605C48",
"' 	c #89877F",
") 	c #656C17",
"! 	c #66624D",
"~ 	c #878679",
"{ 	c #5E3923",
"] 	c #5A361F",
"^ 	c #5A351E",
"/ 	c #5E3B23",
"( 	c #59351D",
"_ 	c #59351E",
": 	c #5D3922",
"< 	c #8E8C83",
"[ 	c #8D8C83",
"} 	c #5D3721",
"| 	c #806F5F",
"1 	c #7A6855",
"2 	c #796653",
"3 	c #58341C",
"4 	c #542D15",
"5 	c #542C15",
"6 	c #59331B",
"7 	c #532C15",
"8 	c #532C14",
"9 	c #5E3C25",
"0 	c #786553",
"a 	c #796754",
"b 	c #7F6F5E",
"c 	c #58331C",
"d 	c #8E8C84",
"e 	c #66452F",
"f 	c #867867",
"g 	c #806F5C",
"h 	c #7F6E5C",
"i 	c #5C3820",
"j 	c #705436",
"k 	c #6F5133",
"l 	c #715335",
"m 	c #705334",
"n 	c #83694C",
"o 	c #6F5033",
"p 	c #705235",
"q 	c #6F5234",
"r 	c #765B3D",
"s 	c #5D3820",
"t 	c #7F6548",
"u 	c #6E5033",
"v 	c #62402B",
"w 	c #7E6D5C",
"x 	c #857767",
"y 	c #603C26",
"z 	c #694A34",
"A 	c #94897B",
"B 	c #8A7C6B",
"C 	c #613C25",
"D 	c #7C6043",
"E 	c #82694C",
"F 	c #836A4D",
"G 	c #877052",
"H 	c #67462C",
"I 	c #8F785B",
"J 	c #82694B",
"K 	c #836A4C",
"L 	c #82684B",
"M 	c #897357",
"N 	c #65442A",
"O 	c #877054",
"P 	c #81684B",
"Q 	c #63422D",
"R 	c #897B6B",
"S 	c #93887B",
"T 	c #6B4C38",
"U 	c #998F81",
"V 	c #938676",
"W 	c #623F2A",
"X 	c #806649",
"Y 	c #856C4E",
"Z 	c #856C4F",
"` 	c #8F785D",
" .	c #6A492E",
"..	c #937D62",
"+.	c #846B4D",
"@.	c #846C4E",
"#.	c #67472C",
"$.	c #8B7558",
"%.	c #846A4D",
"&.	c #836B4E",
"*.	c #65442E",
"=.	c #918576",
"-.	c #988E81",
";.	c #64442F",
">.	c #8E8D84",
",.	c #6D4F3A",
"'.	c #9F9588",
").	c #948778",
"!.	c #643F2A",
"~.	c #8C7759",
"{.	c #8E795C",
"].	c #988167",
"^.	c #75583C",
"/.	c #917B5F",
"(.	c #8C7659",
"_.	c #8D785C",
":.	c #8D785B",
"<.	c #907A5E",
"[.	c #6A4B2F",
"}.	c #8E775A",
"|.	c #8B7658",
"1.	c #8D775B",
"2.	c #65442F",
"3.	c #928677",
"4.	c #9E9488",
"5.	c #664731",
"6.	c #6B4C37",
"7.	c #A1978A",
"8.	c #9B9082",
"9.	c #9B9182",
"0.	c #633F2A",
"a.	c #988267",
"b.	c #968064",
"c.	c #8E785C",
"d.	c #927C61",
"e.	c #6A4B30",
"f.	c #8F795C",
"g.	c #978B7E",
"h.	c #988B7E",
"i.	c #9F968A",
"j.	c #674832",
"k.	c #6C4C37",
"l.	c #A2988C",
"m.	c #A1978B",
"n.	c #64412B",
"o.	c #846A4C",
"p.	c #958064",
"q.	c #9C876C",
"r.	c #75563A",
"s.	c #988367",
"t.	c #957F64",
"u.	c #947F64",
"v.	c #958065",
"w.	c #6B4D32",
"x.	c #968164",
"y.	c #947F63",
"z.	c #674731",
"A.	c #A0968A",
"B.	c #A09589",
"C.	c #A3998D",
"D.	c #A09789",
"E.	c #A09689",
"F.	c #633F29",
"G.	c #958166",
"H.	c #978165",
"I.	c #968165",
"J.	c #9A866A",
"K.	c #958165",
"L.	c #968267",
"M.	c #6C4C31",
"N.	c #978267",
"O.	c #948065",
"P.	c #948064",
"Q.	c #664631",
"R.	c #9F9488",
"S.	c #6A4B36",
"T.	c #A2998C",
"U.	c #633E27",
"V.	c #967F63",
"W.	c #978065",
"X.	c #998468",
"Y.	c #735439",
"Z.	c #988468",
"`.	c #957F63",
" +	c #694A2F",
".+	c #947E62",
"++	c #9E9487",
"@+	c #694934",
"#+	c #66442D",
"$+	c #A1988B",
"%+	c #988D7E",
"&+	c #603A23",
"*+	c #917A5C",
"=+	c #917A5D",
"-+	c #907A5C",
";+	c #735438",
">+	c #90795B",
",+	c #91795D",
"'+	c #90795D",
")+	c #8E785B",
"!+	c #978367",
"~+	c #69492E",
"{+	c #978266",
"]+	c #8F795B",
"^+	c #978C7D",
"/+	c #64412A",
"(+	c #978C7C",
"_+	c #5F3921",
":+	c #7E6346",
"<+	c #90795C",
"[+	c #68482D",
"}+	c #968B7B",
"|+	c #623E28",
"1+	c #9C9384",
"2+	c #8F8270",
"3+	c #5B361E",
"4+	c #7D6245",
"5+	c #917B5E",
"6+	c #957F62",
"7+	c #6D4D31",
"8+	c #968065",
"9+	c #8F785C",
"0+	c #66462A",
"a+	c #907A5D",
"b+	c #64412C",
"c+	c #8D816F",
"d+	c #9A9183",
"e+	c #7F8124",
"f+	c #8D8B82",
"g+	c #6C6852",
"h+	c #939189",
"i+	c #623D27",
"j+	c #8E8270",
"k+	c #59331C",
"l+	c #785A3E",
"m+	c #846B4E",
"n+	c #8A7254",
"o+	c #8C7357",
"p+	c #846A4E",
"q+	c #836A4E",
"r+	c #836B4F",
"s+	c #8D755A",
"t+	c #623F24",
"u+	c #8C7458",
"v+	c #83694D",
"w+	c #64432D",
"x+	c #8D806F",
"y+	c #674732",
"z+	c #686F16",
"A+	c #613C26",
"B+	c #968B7C",
"C+	c #887A69",
"D+	c #887B69",
"E+	c #562E15",
"F+	c #76583D",
"G+	c #886F52",
"H+	c #623C23",
"I+	c #897256",
"J+	c #8B7459",
"K+	c #5C361C",
"L+	c #897054",
"M+	c #82694D",
"N+	c #613D29",
"O+	c #867968",
"P+	c #867868",
"Q+	c #63402B",
"R+	c #5F3923",
"S+	c #918374",
"T+	c #887A68",
"U+	c #81674B",
"V+	c #866D50",
"W+	c #5D381E",
"X+	c #876F53",
"Y+	c #7B6043",
"Z+	c #7A5F43",
"`+	c #7A5E42",
" @	c #7A5E43",
".@	c #795D43",
"+@	c #897156",
"@@	c #58331A",
"#@	c #897155",
"$@	c #81684C",
"%@	c #603C28",
"&@	c #8F8273",
"*@	c #603E29",
"=@	c #5B351E",
"-@	c #552E15",
";@	c #75583D",
">@	c #775A3E",
",@	c #76573D",
"'@	c #77583D",
")@	c #76593D",
"!@	c #806648",
"~@	c #705136",
"{@	c #5E3A25",
"]@	c #5D3923",
"^@	c #5D3A24",
"/@	c #5A3721",
"(@	c #5B3822",
"_@	c #7B5F45",
":@	c #563218",
"<@	c #76593C",
"[@	c #75583E",
"}@	c #725439",
"|@	c #715339",
"1@	c #715338",
"2@	c #6F5036",
"3@	c #5D3822",
"4@	c #5B3720",
"5@	c #5A341D",
"6@	c #978B7C",
"7@	c #958A7A",
"8@	c #552D15",
"9@	c #8F816F",
"0@	c #8F816E",
"a@	c #58331B",
"b@	c #542E15",
"c@	c #532B14",
"d@	c #563019",
"e@	c #948979",
"f@	c #968A7B",
"g@	c #5F3C25",
"h@	c #5F3A24",
"i@	c #897D6B",
"j@	c #7E6F5D",
"k@	c #7D6E5D",
"l@	c #62422A",
"m@	c #613F29",
"n@	c #603F29",
"o@	c #7B6D5C",
"p@	c #7A6957",
"q@	c #5F3D24",
"r@	c #6B4F31",
"s@	c #62442D",
"t@	c #63442D",
"u@	c #62452D",
"v@	c #542E16",
"w@	c #7C6C5C",
"x@	c #7D6E5C",
"y@	c #887C6A",
"z@	c #5D3A23",
"A@	c #5F3B25",
"B@	c #867A68",
"C@	c #7C6D5B",
"D@	c #7C6C5B",
"E@	c #64462C",
"F@	c #725637",
"G@	c #715637",
"H@	c #735638",
"I@	c #715638",
"J@	c #765B3C",
"K@	c #6A4E30",
"L@	c #726351",
"M@	c #81715F",
"N@	c #6F604E",
"O@	c #522B14",
"P@	c #522C14",
"Q@	c #755A3B",
"R@	c #6E5235",
"S@	c #7B6A5A",
"T@	c #7B6B5A",
"U@	c #857867",
"V@	c #5C3721",
"W@	c #603D27",
"X@	c #827363",
"Y@	c #766653",
"Z@	c #63452B",
"`@	c #6D5033",
" #	c #6D5132",
".#	c #755B3B",
"+#	c #70604F",
"@#	c #6F604F",
"##	c #74593A",
"$#	c #746552",
"%#	c #746452",
"&#	c #807262",
"*#	c #59341F",
"=#	c #5D3823",
"-#	c #71624F",
";#	c #62432A",
">#	c #6C5033",
",#	c #6C5031",
"'#	c #6C4F31",
")#	c #6A4D30",
"!#	c #695443",
"~#	c #68523F",
"{#	c #7B6A56",
"]#	c #695543",
"^#	c #72583A",
"/#	c #716250",
"(#	c #70614E",
"_#	c #7A6C5B",
":#	c #542E19",
"<#	c #57321A",
"[#	c #766754",
"}#	c #70614D",
"|#	c #502A13",
"1#	c #614228",
"2#	c #694D30",
"3#	c #624127",
"4#	c #6A4E31",
"5#	c #725839",
"6#	c #6B4F32",
"7#	c #4F2913",
"8#	c #6F604D",
"9#	c #756654",
"0#	c #522B17",
"a#	c #512A14",
"b#	c #73624D",
"c#	c #6C5943",
"d#	c #6D5944",
"e#	c #4E2912",
"f#	c #603E24",
"g#	c #684B2F",
"h#	c #614127",
"i#	c #694C30",
"j#	c #674B2F",
"k#	c #4D2812",
"l#	c #6C5844",
"m#	c #6B5843",
"n#	c #72614D",
"o#	c #502914",
"p#	c #4F2813",
"q#	c #75624E",
"r#	c #6C5843",
"s#	c #6C5742",
"t#	c #603D24",
"u#	c #664A2E",
"v#	c #4E2913",
"w#	c #6B5742",
"x#	c #74624E",
"y#	c #4E2713",
"z#	c #4E2813",
"A#	c #684C30",
"B#	c #725739",
"C#	c #674A2E",
"D#	c #4E2712",
"E#	c #5A3722",
"F#	c #57331E",
"G#	c #56321D",
"H#	c #5F3C23",
"I#	c #5F3C24",
"J#	c #56321C",
"K#	c #57331D",
"L#	c #847866",
"M#	c #827564",
"N#	c #847765",
"O#	c #4F2A13",
"P#	c #4E2812",
"Q#	c #847665",
"R#	c #827463",
"S#	c #827563",
"T#	c #847865",
"U#	c #4E2613",
"V#	c #766753",
"W#	c #7A6B57",
"X#	c #7C6E5A",
"Y#	c #7E6F5C",
"Z#	c #80715F",
"`#	c #817461",
" $	c #857866",
".$	c #897C6B",
"+$	c #897C6C",
"@$	c #8A7D6C",
"#$	c #8A7D6D",
"$$	c #887B6A",
"%$	c #867A69",
"&$	c #857968",
"*$	c #837765",
"=$	c #7E705E",
"-$	c #7C6E5C",
";$	c #7A6C5A",
">$	c #6F5F4D",
",$	c #4F2713",
"'$	c #634D39",
")$	c #634C38",
"!$	c #76644F",
"~$	c #67523E",
"{$	c #65503B",
"]$	c #66513D",
"^$	c #67523D",
"/$	c #685340",
"($	c #695441",
"_$	c #695442",
":$	c #6A5543",
"<$	c #695644",
"[$	c #685442",
"}$	c #685341",
"|$	c #675341",
"1$	c #4F2B15",
"2$	c #76634F",
"3$	c #634C37",
"4$	c #634D38",
"5$	c #88867E",
"6$	c #838279",
"7$	c #88877E",
"8$	c #828175",
"    . . . . . . . . . . . .         + + + + + + + + + + + +         . . . . . . . . . . . .         + + + + + + + + + + + +     ",
"  @ . . . . . . . . . . . . @     # + + + + + + + + + + + + #     @ . . . . . . . . . . . . @     # + + + + + + + + + + + + #   ",
"  @ . . . . . . . . . . . . @     # + + + + + + + + + + + + #     @ . . . . . . . . . . . . @     # + + + + + + + + + + + + #   ",
"  @ . . . . . . . . . . . . @     # + + + + + + + + + + + + #     @ . . . . . . . . . . . . @     # + + + + + + + + + + + + #   ",
"  @ . . . . . . . . . . . . @     # + + + + + + + + + + + + #     $ $ % . . . . . . . . . . @     # + + + + + + + + + + + + #   ",
"  @ . . . . . . . . . . . . @     # + + + + + + + + + + + + #       % . . . . . . . . . . . @     # + + + + + + + + + + + + #   ",
"  @ . . . . . . . . . . . . @     # + + + + + + + + + + + + #       % . . . . . . . . . . . @     # + + + + + + + + + + + + #   ",
"  @ . . . . . . . . . . . . @     # + + + + + + + + + + + + #     % . . . . . . . . . . . . @     # + + + + + + + + + + + + #   ",
"  @ . . . . . . . . . . . . @     # + + + + + + + + + + + + #     % . . . . . . . . . . . . @     # + + + + + + + + + + + + #   ",
"  @ . . . . . . . . . . . . @     # + + + + + + + + + + + + #     & . . . . . . . . . . . . @     # + + + + + + + + + + + + #   ",
"  @ . . . . . . . . . . . . @     # + + + + + + + + + + + + #     & . . . . . . . . . . . . @     # + + + + + + + + + + + + #   ",
"  @ . . . . . . . . . . . . @     # + + + + + + + + + + + + #     & . . . . . . . . . . . * =     # + * * + + + + + + + + + #   ",
"  @ . . . . . . . . . . . . @     # + + + + + + + + + + + + #     - . . . . . . . . . . . . = =   ; * * + + + + + + + + + + @   ",
"  $ > > > > > > > > > > > > $     , ' ' ' ' ' ' ' ' ' ' ' ' $     $ > > > > > > > > > > > > ) * * $ * * ' ' ' ' ' ' ' ' ' >     ",
"    $ ! ! ! ! ! ! ! ! ! ! $         , , , , , , $ $ , , , $         $ $ $ $ $ $ $ $ $ $ $ $ ) * *   ) ) $ $ $ , , , , , $ $     ",
"                                                                                              ) )                               ",
"    ~ ~ ~ ~ ~ ~ ~ ~ ~ ~ ~ ~       { ] ^ ^ . . . . . . . . .         . . . . . . . . . / ( _ :       ~ ~ ~ ~ ~ ~ ~ ~ ~ ~ ~ ~     ",
"  < ~ ~ ~ ~ ~ ~ ~ ~ ~ ~ ~ ~ [   } | 1 2 3 4 4 4 4 5 6 . 5 7 8 8 8 8 8 8 . 8 8 8 8 8 8 9 0 a b c   d ~ ~ ~ ~ ~ ~ ~ ~ ~ ~ ~ ~ d   ",
"  < ~ ~ ~ ~ ~ ~ ~ ~ ~ ~ ~ ~ <   e f g h i j k k l m n 6 n o o p p p q r s t u u p p q v w h x y   d ~ ~ ~ ~ ~ ~ ~ ~ ~ ~ ~ ~ d   ",
"  < ~ ~ ~ ~ ~ ~ ~ ~ ~ ~ ~ ~ <   z A B B C D E F F n G H I J K K E E L M N O P E E E L Q R R S Q   d ~ ~ ~ ~ ~ ~ ~ ~ ~ ~ ~ ~ d   ",
"  < ~ ~ ~ ~ ~ ~ ~ ~ ~ ~ ~ ~ <   T U V V W X Y Y Y Z `  ...+.+.+.+.+.@.` #.$.F F %.F &.*.=.=.-.;.  >.~ ~ ~ ~ ~ ~ ~ ~ ~ ~ ~ ~ d   ",
"  < ~ ~ ~ ~ ~ ~ ~ ~ ~ ~ ~ ~ <   ,.'.).).!.t ~.{.{.{.].^./.(._._._.:.:.<.[.}.|.1.1.1.1.2.3.3.4.5.  >.~ ~ ~ ~ ~ ~ ~ ~ ~ ~ ~ ~ d   ",
"  < ~ ~ ~ ~ ~ ~ ~ ~ ~ ~ ~ ~ <   6.7.8.9.0.n {.{.{.{.a.^.b.{.c._._._._.d.e.f.:.:.:.:.:.2.g.h.i.j.  >.~ ~ ~ ~ ~ ~ ~ ~ ~ ~ ~ ~ <   ",
"  < ~ ~ ~ ~ ~ ~ ~ ~ ~ ~ ~ ~ <   k.l.7.m.n.o.p.p.p.p.q.r.s.t.t.u.u.u.u.v.w.x.y.y.y.y.y.z.A.B.m.z   >.~ ~ ~ ~ ~ ~ ~ ~ ~ ~ ~ ~ <   ",
"  < ~ ~ ~ ~ ~ ~ ~ ~ ~ ~ ~ ~ <   k.C.D.E.F.n p.G.H.I.J.r.s.p.K.v.v.v.v.L.M.N.u.O.v.v.P.Q.R.'.l.S.  >.~ ~ ~ ~ ~ ~ ~ ~ ~ ~ ~ ~ <   ",
"  < ~ ~ ~ ~ ~ ~ ~ ~ ~ ~ ~ ~ <   k.T.D.'.U.L V.W.W.b.X.Y.Z.`.b.t.t.t.t.N. +N..+t.t.t.`.z.++'.m.@+  >.~ ~ ~ ~ ~ ~ ~ ~ ~ ~ ~ ~ <   ",
"  < ~ ~ ~ ~ ~ ~ ~ ~ ~ ~ ~ ~ <   #+$+%+%+&+t *+=+=+-+X.;+s.>+,+'+f.f.)+!+~+{+f.f.f.]+]+e ^+^+A.@+  >.~ ~ ~ ~ ~ ~ ~ ~ ~ ~ ~ ~ <   ",
"  < ~ ~ ~ ~ ~ ~ ~ ~ ~ ~ ~ ~ <   /+D.(+(+_+:+*+*+*+-+x.;+{+-+<+<+f.f.f.N.[+{+]+]+f.]+]+*.}+}+'.@+  >.~ ~ ~ ~ * ~ ~ ~ ~ ~ ~ ~ [   ",
"  < ~ ~ ~ ~ ~ ~ ~ ~ ~ ~ ~ ~ <   |+1+2+2+3+4+5+*+-+-+6+7+8+9+c.c.c.c.)+b.0+I.a+]+]+]+]+b+c+c+d+@+  >.~ ~ ~ e+e+~ ~ ~ ~ ~ ~ ~ f+  ",
"  g+h+h+h+h+h+h+h+h+h+h+h+h+!   i+9.j+j+k+l+m+m+F m+n+7+o+p+q+r+&.&.F s+t+u+v+F F F F w+x+x+U y+  $ h+h+* e+z+h+h+h+h+h+h+h+g+  ",
"    ! ! g+g+g+g+g+g+g+! ! !     A+B+C+D+E+F+m+m+m+m+G+H+I+F F F v+v+v+J+K+L+M+M+M+M+M+N+O+P+A Q+    $ g+* * g+g+g+g+g+g+g+g+    ",
"                                R+S+T+T+E+F+m+m+p+U+V+W+X+Y+Z+`+ @ @.@+@@@#@M+$@M+$@$@%@f f &@*@        z+z+                    ",
"    . . . . . . . . . . . .     =@-@E+E+-@;@>@,@'@)@!@4 ~@{@]@^@/@(@( _@:@<@[@}@|@1@2@3@8 8 8 4@    . . . . . . . . . . . .     ",
"  @ . . . . . . . . . . . . @   5@}+6@7@8@8@8@8@8@4 4 5 5 8 9@0@0@0@a@8 b@c@c@8 8 8 8 d@e@f@7@g@  % . . . . . . . . . . . . @   ",
"  @ . . . . . . . . . . . . @   h@i@j@k@8@l@m@n@n@n@*@5 / 8 o@8 8 p@c@q@8 r@s@t@s@u@s@v@w@x@y@z@  @ . . . . . . . . . . . . @   ",
"  @ . . . . . . . . . . . . @   A@B@C@D@4 E@F@G@H@I@J@8 K@8 L@M@c@N@O@q@P@Q@R@R@R@R@R@c@S@T@U@V@  @ . . . . . . . . . . . . @   ",
"  @ . . . . . . . . . . . . @   W@X@Y@Y@5 Z@u `@`@ #.#8 K@c@+#N@O@@#O@q@P@##r@r@r@r@r@O@$#%#&#*#  @ . . . . . . . . . . . . @   ",
"  @ . . . . . . . . . . . . @   =#o@-#L@8 ;#>#,#'#'#.#c@)#O@!#~#{#]#O@q@P@^#r@r@r@r@r@O@/#(#_#:#  @ . . . . . . . . . . . . @   ",
"  @ . . . . . . . . . . . . @   <#[#}#}#|#1#'#'#'#r@Q@c@2#3#O@O@O@O@q@4#P@5#r@r@r@r@6#7#8#8#9#0#  @ . . . . . . . . . . . . @   ",
"  @ . . . . . . . . . . . . @   a#b#c#d#e#f#g#g#g#g###O@2#2#h#h#3#3#i#2#P@^#2#j#j#j#2#k#l#m#n#o#  @ . . . . . . . . . . . . @   ",
"  @ . . . . . . . . . . . . @   p#q#r#s#7#t#j#j#j#u#^#O@2#2#2#2#2#2#2#2#P@5#j#j#j#j#j#v#w#m#x#y#  @ . . . . . . . . . . . . @   ",
"  @ . . . . . . . . . . . . @   z#x#m#w#v#q@A#j#j#u#^#O@2#2#2#2#2#2#2#i#P@B#C#j#j#j#2#v#w#m#x#y#  @ . . . . . . . . . . . . >   ",
"  @ . . . . . . . . . . . . @   D#E#E#F#G#q@q@q@q@q@##O@q@q@q@q@q@q@q@q@P@B#q@H#I#q@q@J#K#F#K#y#  @ . . . . . . . . . . . > $   ",
"  @ . . . . . . . . . . . . @   D#L#M#M#N#O#P#v#O@O@O@O@O@O@O@O@O@O@O@O@O@O@O@O@7#7#7#Q#R#S#T#U#  % . . . . . . . . . . > $     ",
"  @ . . . . . . . . . . = * $   z#N@N@8#V#7#W#X#Y#Z#`# $.$+$@$#$#$$$%$%$&$L#*$=$-$;$P#Y@>$>$8#U#  & . . . . . . . . . > $       ",
"  $ > > > > > = * > > * = )     ,$'$)$)$!$7#~${$]$^$/$/$($_$_$_$:$<$]#[$[$[$[$}$|$|$1$2$3$)$4$,$  $ > > > > > > > > > $         ",
"    $ $ $ $ $ ) * * $ * *       ,$,$,$,$,$,$,$,$,$,$,$,$,$,$,$,$,$y#y#y#y#y#y#y#y#y#D#D#,$,$,$,$    $ $ $ $ $ $ $ $ $           ",
"                ) * * * )                                           z+z+                                                        ",
"    . . . . . . ) * * )                   + + + + + + + + +         . . . . . . . . . .             . . . . . . '     . . .     ",
"  5$. . . . . . . ) *                   + + + + + + + + + + 6$    % . . . . . . . . . . . .       7$. . . . . . '   . . . . 5$  ",
"  5$. . . . . . . . . . .             + + + + + + + + + + + 6$    % . . . . . . . . . . . . @     7$. . . . . ' $ . . . . . 5$  ",
"  5$. . . . . . . . . . . . @     # + + + + + + + + + + + + 6$    % . . . . . . . . . . . . @     7$* * . ' ' $   . . . . . 5$  ",
"  5$. . . . . . . . . . . . @     # + + + + + + + + + + + + 6$    % . . . . . . . . . . . . @     e+e+' ' $ $     . . . . . 5$  ",
"  5$. . . . . . . . . . . . #     * + + + + + + + + + + + + 6$    % . . . . . . . . . . . . @   * * z+$ $       . . . . . . 5$  ",
"  @ . . . . . . . . . . . . #   e+e++ + + + + + + + + + + + 6$    % . . . . . . . . . . . . @   * * z+        . . . . . . . @   ",
"  @ . . . . . . . . . . . . # * e+z++ + + + + + + + + + + + 6$    % . . . . . . . . . . . . @   * z+      . . . . . . . . . @   ",
"  @ . . . . . . . . . . . . # * * # + + + + + + + + + + + + 6$    % . . . . . . . . . . . . @         . . . . . . . . . . . @   ",
"  @ . . . . . . . . . . . . @ z+z+# + + + + + + + + + + + + 6$    % . . . . . . . . . . . . @     7$. . . . . . . . . . . . @   ",
"  @ . . . . . . . . . . . . @     # + + + + + + + + + + + + 6$    % . . . . . . . . . . . . @     7$. . . . . . . . . . . . @   ",
"  % . . . . . . . . . . . . @     # + + + + + + + + + + + ' >     % . . . . . . . . . . . > >     7$. . . . . . . . . . . . %   ",
"  & . . . . . . . . . . . . @     @ + + + + + + + + + + ' $ $     % . . . . . . . . > > * e+e+    7$8$. . . . . . . . . . . &   ",
"  $ > > > > > > > > > > > > $     $ > ' ' ' ' ' ' ' ' ' $         $ > > > > > > > > $ $ $ e+* *   $ > > > > > > > > > > > > $   ",
"    $ $ $ $ $ $ $ $ $ $ $ $         $ $ , , , , , , , $             $ $ $ $ $ $ $ $       z+* *     $ $ $ $ $ $ $ $ $ $ $ $     ",
"                                                                                            z+*                                 "};
