/* XPM */
static char * pool_closed2_xpm[] = {
"120 120 7 1",
" 	c #C0D470",
".	c #A4C263",
"+	c #855E5E",
"@	c #442525",
"#	c #09CEF3",
"$	c #E8EEAA",
"%	c #D2E077",
"                                                                                                                        ",
"                                                                                                                        ",
"                                                                                                                        ",
"                                                                                                                        ",
"                                                                .. ..                                                   ",
"                                                                .. ..                                                   ",
"                      ..    ++                 ..  .              .                             .......                 ",
"                     .    ++                     ..                                           .............             ",
"                     .    ++                     ..                                           .............             ",
"                 ++  .               ++  ++                     ++                            ...............           ",
"                 ++  .               ++  ++                     ++                            ...............           ",
"       ..               ++    ++++  +++    @@@@++@@@@@++@@@@@@@@@@+@@@@@@                     ...............           ",
"       ..               ++    ++++  +++    @@@@++@@@@@++@@@@@@@@@@+@@@@@@                     ...............           ",
"         ..  ++       ++    ++++  @@@++@@@@@@@@@@@@@@@@@@@@@@@@@@@@@@@@@@@@@@@@@@@@@++@@@@@@@@@@@@@@@@@@@....           ",
"         ..  ++       ++    ++++  @@@++@@@@@@@@@@@@@@@@@@@@@@@@@@@@@@@@@@@@@@@@@@@@@++@@@@@@@@@@@@@@@@@@@....           ",
"         ..    @@@@@@@@@@@++@@@@@@@@@@@++@@@@@@@@@@@@@++++@@@@@@@@@@@@@++@@@@@@+++@@@@@@@@@@@@@@@++@@++##@@@@@@         ",
"         ..    @@@@@@@@@@@++@@@@@@@@@@@++@@@@@@@@@@@@@++++@@@@@@@@@@@@@++@@@@@@+++@@@@@@@@@@@@@@@++@@++##@@@@@@         ",
"             @@@@@@@@@++++@@++++@@++@@@++++++@@@@@@@@@@@@@++@@+++++@@@@++++++@@.. ..@@@@@@@@@@@@@@@@@@@++@@@@@@@        ",
"             @@@@@@@@@++++@@++++@@++@@@++++++@@@@@@@@@@@@@++@@+++++@@@@++++++@@.. ..@@@@@@@@@@@@@@@@@@@++@@@@@@@        ",
"           @@@@++@@@@+++@@++@@++@@++@++@@@@++++@@++@@@@@@@@@@@@@@@@@@++@@@@@@@@@@+@@@@@@@@@@@@++@@@@@@@++++@@@@@..      ",
"           @@@@++@@@@+++@@++@@++@@++@++@@@@++++@@++@@@@@@@@@@@@@@@@@@++@@@@@@@@@@+@@@@@@@@@@@@++@@@@@@@++++@@@@@..      ",
"    ++   @@@@++@@@@@@+@@@@@@@@@@@@@@+++@@@@++@@@@@@+@@++@@@@@@@@++@@@@@@@@@@@@@@@@@@@@@@++@@@@@@@@@++@@++..@@@@@....    ",
"         @@@@@@@@@@@@+@@++++++@@@@++@@@++@@++@@++@@+@@++++@@@@++++@@@@@++@@@@@@++@@@@@@@@@@@@@@@@@@@@@@++..@@@@@@@..    ",
"         @@@@@@@@@@@@+@@++++++@@@@++@@@++@@++@@++@@+@@++++@@@@++++@@@@@++@@@@@@++@@@@@@@@@@@@@@@@@@@@@@++..@@@@@@@..    ",
"       ++++@@@@@@++@@+@@++++++@@+++++@@++@@@@@@@@@@+@@@@++++@@@@@@@..@@..++@@@@@@@@@@@@@++@@++@@@@@@@@@@@@@@@@@@@@++    ",
"       ++++@@@@@@++@@+@@++++++@@+++++@@++@@@@@@@@@@+@@@@++++@@@@@@@..@@..++@@@@@@@@@@@@@++@@++@@@@@@@@@@@@@@@@@@@@++    ",
"         ++@@@@++++@@@@@@@@@@@@@@@@@@++@@++++@@@@@@@@@@@@@++++@@++@@@..++@@@@++@@@@@@@@@@@@@@@+++@@@@@@@@@@@@@@@@@      ",
"         ++@@@@++++@@@@@@@@@@@@@@@@@@++@@++++@@@@@@@@@@@@@++++@@++@@@..++@@@@++@@@@@@@@@@@@@@@+++@@@@@@@@@@@@@@@@@      ",
"  ++   ++++@@@@++++@@@@@@@@@++@@@@@@+@@@@@@@@@@@@@@@@@@@@@++@@++@@@@@@@@@@@@@@@@@@@@@@++@@@@@@@@@@@@@@@@@@@@@@@@++      ",
"  ++   ++++@@@@++++@@@@@@@@@++@@@@@@+@@@@@@@@@@@@@@@@@@@@@++@@++@@@@@@@@@@@@@@@@@@@@@@++@@@@@@@@@@@@@@@@@@@@@@@@++      ",
"       @@++@@++++@@+++@@@@@@++++@@@@@@@@@@@@@@@++@@@++@@@@@@@@@@@@@@@@@@@@@@@@@@@@@@@@@@@@@@@@@@@@@@@@@++@@@@@@@@@      ",
"       @@++@@++++@@+++@@@@@@++++@@@@@@@@@@@@@@@++@@@++@@@@@@@@@@@@@@@@@@@@@@@@@@@@@@@@@@@@@@@@@@@@@@@@@++@@@@@@@@@      ",
"  ++  +@@++++@@@@@@@@@@@@@++@@@@++@@+@@@@@@@@@@@@@@+@@++@@@@@@@@@@@@@@@++@@@@++@@@@@@@@@++@@@@@@@@@@@@@@@@@@@@@@@@      ",
"  ++  +@@++++@@@@@@@@@@@@@++@@@@++@@+@@@@@@@@@@@@@@+@@++@@@@@@@@@@@@@@@++@@@@++@@@@@@@@@++@@@@@@@@@@@@@@@@@@@@@@@@      ",
"       @@++@@++@@@@@@@@@@@@@@@@@++++@@@@@@@@@@@@@@@@++@@@@@@@@@@@@@@@@@@@@@@@@@+++@@@@@@@@@@@@@@+@@@@@@@@@@++@@@@@++    ",
"       @@++@@++@@@@@@@@@@@@@@@@@++++@@@@@@@@@@@@@@@@++@@@@@@@@@@@@@@@@@@@@@@@@@+++@@@@@@@@@@@@@@+@@@@@@@@@@++@@@@@++    ",
"       @@@@++++++++@@+@@@@@@@@@@@@@@+@@@@@@++@@++@@@@@++@@@@@@@@+++@@@@@@@@@@@@@@@@@@@@@@@@@++@@@@@++@@@@++@@@@@@@      ",
"       @@@@@@@@@@@@@@@++@@++@@++@@@@@@@@@@@@@@@@@@@@@@@@@@@@@@@@@@@@@@@@@@@@@@@@@@@@@@@@@@++@@@@@@@++@@@@++++@@@++@@    ",
"       @@@@@@@@@@@@@@@++@@++@@++@@@@@@@@@@@@@@@@@@@@@@@@@@@@@@@@@@@@@@@@@@@@@@@@@@@@@@@@@@++@@@@@@@++@@@@++++@@@++@@    ",
"       @@@@@@$$@@@@@@+@@@@@@@@@@++@@@@@++@@@@@@@@@@+@@@@@@@@++++@@@++@@$$@@$$@@@@@@@@@@@@@@@@@@@@@@++++@@@@@@@@@@@@@    ",
"       @@@@@@$$@@@@@@+@@@@@@@@@@++@@@@@++@@@@@@@@@@+@@@@@@@@++++@@@++@@$$@@$$@@@@@@@@@@@@@@@@@@@@@@++++@@@@@@@@@@@@@    ",
"       @@++$$@@@@@@@@@@@@@@@@@@@@@@@@@@@@@@@@@@@@@@@++@@@@@@++@@@@@@@@@@@$$@@@@@@@@@@@@@@@@@@@@@@@@@@@@@@@@@@@@@@@@@    ",
"       @@++$$@@@@@@@@@@@@@@@@@@@@@@@@@@@@@@@@@@@@@@@++@@@@@@++@@@@@@@@@@@$$@@@@@@@@@@@@@@@@@@@@@@@@@@@@@@@@@@@@@@@@@    ",
"    ++$@@++++@@@@@@@@@@@@@@@@@@@@@@@@@@@@@@@@++@@@@@@@++@@@@@@@@@@@@@@@@@@@@@@@@@@@@++@@++@@@@@@@@@++@@@@++++@@+@@@@    ",
"    ++$@@++++@@@@@@@@@@@@@@@@@@@@@@@@@@@@@@@@++@@@@@@@++@@@@@@@@@@@@@@@@@@@@@@@@@@@@++@@++@@@@@@@@@++@@@@++++@@+@@@@    ",
"       $$@@$$@@@@@@@@@@@@@@@@@@@@@++@@@@@@@@@@@@@@@@@@++@@@@@@@@@@@++@@@@@@@@@@@@@@@@@@@@@@@++++@@@@@@@++@@@@@@+@@@@    ",
"       $$@@$$@@@@@@@@@@@@@@@@@@@@@++@@@@@@@@@@@@@@@@@@++@@@@@@@@@@@++@@@@@@@@@@@@@@@@@@@@@@@++++@@@@@@@++@@@@@@+@@@@    ",
"       $$@@@@@@@@@@$$@@@++@@@@@@@@@@@@@@@@@++@@@@@@@++@@@@@@@@@@@@@++@@@@@@@@@@@@@++@@@@@@@@@@@@@@@@@@@++@@@@@@@@@@@    ",
"       $$@@@@@@@@@@$$@@@++@@@@@@@@@@@@@@@@@++@@@@@@@++@@@@@@@@@@@@@++@@@@@@@@@@@@@++@@@@@@@@@@@@@@@@@@@++@@@@@@@@@@@    ",
"  ++++ $$@@@@@@@@@@@@$@@@@@@@@@@@@@@@$$@@$$@@@@@@@@@@@@@@@@@@@@@@@@@@@@@@@@@@@@@@@@@@@@@++@@@@++@@@++@@++++@@@@@@@@@  ++",
"  ++++ $$@@@@@@@@@@@@$@@@@@@@@@@@@@@@$$@@$$@@@@@@@@@@@@@@@@@@@@@@@@@@@@@@@@@@@@@@@@@@@@@++@@@@++@@@++@@++++@@@@@@@@@  ++",
"    +++  @@@@@@@@@@@@$@@@@@@@@@@@@@@@@@$$@@@@@@@@@@@@@@@@@@@@@@@@@@@@@@@@@@@@@@@@+@@@@@@@@@@@@@@@@@@@@@@@@@@@@@@@@@@    ",
"         @@@@@@@@@@@@$@@@@@@@@@@@@@@+@@@@@@@@@@@@@@+++@@@@@@@@++@@@++@@@@++@@@@@@@@@++++@@@@@@@@@@@@@@@@@++@@++@@@@@    ",
"         @@@@@@@@@@@@$@@@@@@@@@@@@@@+@@@@@@@@@@@@@@+++@@@@@@@@++@@@++@@@@++@@@@@@@@@++++@@@@@@@@@@@@@@@@@++@@++@@@@@    ",
"++       @@@@@@@@++@@@@@@@@@@@@@@@++@@@@@@@@@@@++@@@@@++@@@@@@@@++@@@@@@@@@@@@@@@@@@@@@@@@@@@@@@@++@@@@@@@@@@@@@@@@@++  ",
"++       @@@@@@@@++@@@@@@@@@@@@@@@++@@@@@@@@@@@++@@@@@++@@@@@@@@++@@@@@@@@@@@@@@@@@@@@@@@@@@@@@@@++@@@@@@@@@@@@@@@@@++  ",
"         @@@@@@@@@@@@@@@@@@@@@@@@@@@@++@@@@@@@@@@++@@@++@@++@@@@@@@@@@@@@@@@@@@@@@@@@@@@@@@@@@@@@@@@@@@@@@@@@@@@@@@@    ",
"         @@@@@@@@@@@@@@@@@@@@@@@@@@@@++@@@@@@@@@@++@@@++@@++@@@@@@@@@@@@@@@@@@@@@@@@@@@@@@@@@@@@@@@@@@@@@@@@@@@@@@@@    ",
"  ++     @@@@@@@@@@@@+@@@@@@@@@@@@@@@@@@@@@@@++++@@@++@@@@++@@@@@@@@@@@@@@@@@@@++@@@@@@@@@@@@@++@++@@++@@@@@@@@+@@++    ",
"  ++     @@@@@@@@@@@@+@@@@@@@@@@@@@@@@@@@@@@@++++@@@++@@@@++@@@@@@@@@@@@@@@@@@@++@@@@@@@@@@@@@++@++@@++@@@@@@@@+@@++    ",
"         @@@@@@@@@@@@@++@@@@++@@++++@++@@@@@@@@@@@@@@@@@@@@@@@@@@@+@@@@++@@@@@@@@@@@@@@@@@@@++@@@@@++++@@@@++++@@@@@    ",
"         @@@@@@@@@@@@@++@@@@++@@++++@++@@@@@@@@@@@@@@@@@@@@@@@@@@@+@@@@++@@@@@@@@@@@@@@@@@@@++@@@@@++++@@@@++++@@@@@    ",
"         @@@@@@@@@@@@@@@@@@@@@@@@@@@@@@@@@@@@@@@@@@@@@++@@@@@@@@@@@@@@@@@@@@@@@@@@@@@@@@@@@@@@@@+@@++@@@@@@@@++@@@@@    ",
"         @@@@@@@@@@@@@@@@@@@@@@@@@@@@@@@@@@@@@@@@@@@@@++@@@@@@@@@@@@@@@@@@@@@@@@@@@@@@@@@@@@@@@@+@@++@@@@@@@@++@@@@@    ",
"    ++   @@@@@@@@@@@@+@@++@@@@@@@@@@@@@@@++@@@@++@@@@@@@++@@@@++..@..@@@@@@@@@@@@@@@@@@@++@@++@@@@@@@@@@@@@@@@@@++@@++  ",
"    ++   @@@@@@@@@@@@+@@++@@@@@@@@@@@@@@@++@@@@++@@@@@@@++@@@@++..@..@@@@@@@@@@@@@@@@@@@++@@++@@@@@@@@@@@@@@@@@@++@@++  ",
"      +  @@@@@@++@@@@@..@@@@@@@@@@@@@@@@@@@@@++..@@+@@++@@++@@@@++.@@@@@@@@@@@@@@@@@@@@@@@@@++@@@@@++@@@@@@++@@+@@++    ",
"         ++@@@@@@@@@@+@@@@@@@@@@@@@@@@@@@@@@@@@++++@@@@@@@@@@@@@@@@@@@@@@++@@@@@@@@@@@@@@@++++@@@@@@@@@++@@@@@@+@@@@    ",
"         ++@@@@@@@@@@+@@@@@@@@@@@@@@@@@@@@@@@@@++++@@@@@@@@@@@@@@@@@@@@@@++@@@@@@@@@@@@@@@++++@@@@@@@@@++@@@@@@+@@@@    ",
"         ++@@@@++@@@@.@@@@@@@@@@@@@@@@@@@++@@@@++@@@@@@@++++@@@@++@@@@@@@@@@@@@@@@@@@@@@@@@@++@@@@@@@++@@@@@@@@@++++    ",
"         ++@@@@++@@@@.@@@@@@@@@@@@@@@@@@@++@@@@++@@@@@@@++++@@@@++@@@@@@@@@@@@@@@@@@@@@@@@@@++@@@@@@@++@@@@@@@@@++++    ",
"       ..@@++@@@@@@@@@@@@@@@@@@@@@@@@@@@@@@@@@@@@@@@@@@@@@@@@@@@++@++@@@@++@@@@@@@@@++@@@@@@++@@@@@@@@@@@@@++@@@@@@@    ",
"       ..@@++@@@@@@@@@@@@@@@@@@@@@@@@@@@@@@@@@@@@@@@@@@@@@@@@@@@++@++@@@@++@@@@@@@@@++@@@@@@++@@@@@@@@@@@@@++@@@@@@@    ",
"    ++   ++@@@@@@@@@@@@@@@@@@@@@@@@@@@@@@@@@@@@@@@@@@@@@@@++@@@@@@@++@@@@@@@@@@@@@@@@@++++@@@@@@@@@@@@@++@@@@@@@@@@@@@  ",
"    ++   ++@@@@@@@@@@@@@@@@@@@@@@@@@@@@@@@@@@@@@@@@@@@@@@@++@@@@@@@++@@@@@@@@@@@@@@@@@++++@@@@@@@@@@@@@++@@@@@@@@@@@@@  ",
"      +  ++@@++@@++..+@@@@@@++@@@@@@+@@@@++@@@@@@@@@++++@@@@@@@@@@@@@@@@@@@@@@@@@@@@@@@@++++@@@@+@@@@@@@@@@++++@@@@@@@  ",
"      +  ++@@++@@++..+@@@@@@++@@@@@@+@@@@++@@@@@@@@@++++@@@@@@@@@@@@@@@@@@@@@@@@@@@@@@@@++++@@@@+@@@@@@@@@@++++@@@@@@@  ",
"  ++     @@++@@@@@@@@@++++@@@@@@@@++@@@@@@@@@@@@@@@@@@@@@@@@@@@@@@@@@@@@@@@@@@@..@..@@@@@@@@@@@@@++@@@@++@@@@@@@@@@@@@  ",
"  ++     @@++@@@@@@@@@++++@@@@@@@@++@@@@@@@@@@@@@@@@@@@@@@@@@@@@@@@@@@@@@@@@@@@..@..@@@@@@@@@@@@@++@@@@++@@@@@@@@@@@@@  ",
"         @@++@@@@++@@+@@@@@@@@@@@@@@.++..@@@@++@@++@@@@@@@@@@@++@@@@@@@@@@@@@@@@@.@@@@@@@@@@@@@@@++@@@@++@@.......@@@@  ",
"         @@++@@@@++@@+@@@@@@@@@@@@@@.++..@@@@++@@++@@@@@@@@@@@++@@@@@@@@@@@@@@@@@.@@@@@@@@@@@@@@@++@@@@++@@.......@@@@  ",
"         @@@@@@@@++@@@@@@@@@@@@@@@@@@..@@@@@@@@@@@@@@@@@@@@@@@@@@@@@@@@@@@@++@@@@@@@++@@@@@@++@@@++++@@@@...........@@  ",
"++    +  @@@@@@@@@@++@@@++++@@@@@@@@@@@@@@@@@@@++++@@@@@@@@@@@@@@@@@@@@@@@@@@@@@@@@@++@@@@@@@@@@@@@@@@@@@++.........@@  ",
"++    +  @@@@@@@@@@++@@@++++@@@@@@@@@@@@@@@@@@@++++@@@@@@@@@@@@@@@@@@@@@@@@@@@@@@@@@++@@@@@@@@@@@@@@@@@@@++.........@@  ",
"         ++++@@@@++@@@@@++@@++@@@@@@@@@@@@@@@++@@@@+@@++++++@@@@@@@..@@..@@@@@@@@@@@@@@@@@@@@@@@+@@++@@@@@@.......@@@@  ",
"         ++++@@@@++@@@@@++@@++@@@@@@@@@@@@@@@++@@@@+@@++++++@@@@@@@..@@..@@@@@@@@@@@@@@@@@@@@@@@+@@++@@@@@@.......@@@@  ",
"           ++@@@@@@@@+@@@@++@@++@@@@@@@@@@@++@@++++@@@++@@@@@@@@@@@@@..@@@@@@@@++@@@@@@@@@@@@@@@+@@@@@@@@@@@@@@@@@@@@@  ",
"           ++@@@@@@@@+@@@@++@@++@@@@@@@@@@@++@@++++@@@++@@@@@@@@@@@@@..@@@@@@@@++@@@@@@@@@@@@@@@+@@@@@@@@@@@@@@@@@@@@@  ",
"         ++++@@@@@@+++@@++@@@@@@@@@@@@@@@@@@@@@++@@@@@++++@@@@++@@+@@@@@@@@@@@@@@@@@++@@@@@@@@@@@@@@@++@@++++@@@@@@@@@  ",
"         ++++@@@@@@+++@@++@@@@@@@@@@@@@@@@@@@@@++@@@@@++++@@@@++@@+@@@@@@@@@@@@@@@@@++@@@@@@@@@@@@@@@++@@++++@@@@@@@@@  ",
"      +    @@@@@@@@+++++@@++@@++++@@@@@@@++@@@@@@@@+@@@@++++@@@@@@@++@@@@++@@@@@@@@@@@@@++@@@@@@@@@++++@@@@@@@@@@@@@@@  ",
"      +    @@@@@@@@+++++@@++@@++++@@@@@@@++@@@@@@@@+@@@@++++@@@@@@@++@@@@++@@@@@@@@@@@@@++@@@@@@@@@++++@@@@@@@@@@@@@@@  ",
"           @@@@@@+++++++@@@@@@@@@@++@@@@@@@@@@@++@@@@@++@@@@@@++@@@++++++++@@@@@@@@@@@@@@@@@@@@@@@@@@@@@@@@@@@@@@@@@@@  ",
"           @@@@@@+++++++@@@@@@@@@@++@@@@@@@@@@@++@@@@@++@@@@@@++@@@++++++++@@@@@@@@@@@@@@@@@@@@@@@@@@@@@@@@@@@@@@@@@@@  ",
"           ++@@@@@@++@++@@@@@@@@@@@@@@@@@++++++@@@@@@@++@@@@@@@@++@@@@@@@@@@@@@@@@@@@@@@@@@@@@@@@@@@@@@@@++++@@@@@@@@@  ",
"           ++@@@@@@++@++@@@@@@@@@@@@@@@@@++++++@@@@@@@++@@@@@@@@++@@@@@@@@@@@@@@@@@@@@@@@@@@@@@@@@@@@@@@@++++@@@@@@@@@  ",
"           @@@@++++@@@++@@@@@@@@@@@@@@@@@++++@@@@@@$@@++@@@@@@@@@@@@@@@@@@@@@@@@@+++@@@@++++@@@@%%%%%%%%%@@@@@@@@@@@@@  ",
"           @@@@++@@@@@@@@@@@@@++@@@@@++@@++@@++@@@@+$$@@@@++@@@@@@+++@@@@@@@@@@@@@@@@@@@@@@@@@%%%%%++%%%%%%@@@@@@@@@@@  ",
"           @@@@++@@@@@@@@@@@@@++@@@@@++@@++@@++@@@@+$$@@@@++@@@@@@+++@@@@@@@@@@@@@@@@@@@@@@@@@%%%%%++%%%%%%@@@@@@@@@@@  ",
"           @@@@@@@@++@@@@@++@@@@@@@@@@@++@@@@@@@@@@@@@@@@@@@@@@@@@@@@@@@@@@@@@@++@@@@@@@@@@@@@@@+%%%%++%%%%@@@@@@@@@    ",
"           @@@@@@@@++@@@@@++@@@@@@@@@@@++@@@@@@@@@@@@@@@@@@@@@@@@@@@@@@@@@@@@@@++@@@@@@@@@@@@@@@+%%%%++%%%%@@@@@@@@@    ",
"           $$  @@@@@@@@@@@@@@@@@@@@@+@@@@@@++@@++@@+@@@@@@@@@@@@@@@@@@@@@$$++@@@@@@@@@@@@@@@@@@@%%%%%++%%@@@@@@@@@@@    ",
"           $$  @@@@@@@@@@@@@@@@@@@@@+@@@@@@++@@++@@+@@@@@@@@@@@@@@@@@@@@@$$++@@@@@@@@@@@@@@@@@@@%%%%%++%%@@@@@@@@@@@    ",
"      $    $$               @@@@@@@@@@@@@@@@@@@@@@@@@@@@@@@@++@@@@@@@@@@@@@@@@@@@@@@++@@++++@@@@@@@@@@@@@@@@@@@@@@      ",
"      $    $$               @@@@@@@@@@@@@@@@@@@@@@@@@@@@@@@@++@@@@@@@@@@@@@@@@@@@@@@++@@++++@@@@@@@@@@@@@@@@@@@@@@      ",
"       $$  $$                                           @@@@@@@@@@@++@@@@@@@@@@@@@@@@@@@++@@@@++@@@@@@@@@++@@@@%%%      ",
"       $$  $$                                           @@@@@@@@@@@++@@@@@@@@@@@@@@@@@@@++@@@@++@@@@@@@@@++@@@@%%%      ",
"       $$          $$                                       ++    +    ++  ++           ++  ++     ++++%%%%%%%%%%%%%    ",
"       $$          $$                                       ++    +    ++  ++           ++  ++     ++++%%%%%%%%%%%%%    ",
"       $$            $               $$  $$                            ++         ++  ++      +++++    ++++%%%%%%%%%    ",
"       $$            $               $$  $$                            ++         ++  ++      +++++    ++++%%%%%%%%%    ",
"                     $                 $$                                             ++      %%+++++    %%%%%%%%%      ",
"                     $                                            +                         %%%%%%%%%                   ",
"                     $                                            +                         %%%%%%%%%                   ",
"                                                                                            %%%%%++%%++  ++++           ",
"                                                                                            %%%%%++%%++  ++++           ",
"                                                                                              %%%%%++                   ",
"                                                                                              %%%%%++                   ",
"                                                                                                                        ",
"                                                                                                                        "};
