/* XPM */
static char * Exit_open_xpm[] = {
"64 64 503 2",
"  	c #5A3B27",
". 	c #72751B",
"+ 	c #868579",
"@ 	c #88877B",
"# 	c #5E4532",
"$ 	c #624937",
"% 	c #675544",
"& 	c #918F88",
"* 	c #929088",
"= 	c #94928B",
"- 	c #99978F",
"; 	c #665444",
"> 	c #6D695F",
", 	c #6D685F",
"' 	c #5B4231",
") 	c #6C685E",
"! 	c #6C675E",
"~ 	c #6B675D",
"{ 	c #6C665E",
"] 	c #6B665D",
"^ 	c #6B655D",
"/ 	c #6A655C",
"( 	c #6A665C",
"_ 	c #593D2A",
": 	c #6A645C",
"< 	c #53321E",
"[ 	c #69645B",
"} 	c #69635B",
"| 	c #68635A",
"1 	c #676259",
"2 	c #68625A",
"3 	c #676159",
"4 	c #4F2913",
"5 	c #502B15",
"6 	c #4F2A14",
"7 	c #5D5348",
"8 	c #492513",
"9 	c #5C5247",
"0 	c #807F72",
"a 	c #87867D",
"b 	c #4F311E",
"c 	c #5C5147",
"d 	c #5D5247",
"e 	c #5D5248",
"f 	c #6B4C2D",
"g 	c #6D4D32",
"h 	c #4D321E",
"i 	c #806245",
"j 	c #7F6447",
"k 	c #4F3625",
"l 	c #6A4F34",
"m 	c #6A4A2E",
"n 	c #492F1A",
"o 	c #A38A6C",
"p 	c #6E5237",
"q 	c #674B30",
"r 	c #6A4A30",
"s 	c #462E1B",
"t 	c #6C4D2E",
"u 	c #7E6345",
"v 	c #816747",
"w 	c #A38B6A",
"x 	c #705338",
"y 	c #6C4C32",
"z 	c #4A321F",
"A 	c #69492B",
"B 	c #7E6144",
"C 	c #7D6242",
"D 	c #7F6542",
"E 	c #A28865",
"F 	c #8B6F54",
"G 	c #694E32",
"H 	c #67492F",
"I 	c #4C3421",
"J 	c #87857C",
"K 	c #6A4A2C",
"L 	c #85684B",
"M 	c #806646",
"N 	c #7E623E",
"O 	c #A08661",
"P 	c #907A58",
"Q 	c #655F57",
"R 	c #584132",
"S 	c #8A6E53",
"T 	c #513319",
"U 	c #69482F",
"V 	c #4B3320",
"W 	c #816347",
"X 	c #6B5131",
"Y 	c #7D613F",
"Z 	c #9F8462",
"` 	c #907857",
" .	c #543624",
"..	c #5E5146",
"+.	c #5D4D41",
"@.	c #5F5349",
"#.	c #5B483B",
"$.	c #5C4A3D",
"%.	c #8B6D53",
"&.	c #8C7055",
"*.	c #4B2F14",
"=.	c #73553B",
"-.	c #4E2E14",
";.	c #482F1C",
">.	c #684629",
",.	c #684B2C",
"'.	c #8E7454",
").	c #6D5031",
"!.	c #9F8263",
"~.	c #886E4E",
"{.	c #8B6E4F",
"].	c #513220",
"^.	c #543A2A",
"/.	c #573E2E",
"(.	c #563B2A",
"_.	c #573C2C",
":.	c #594436",
"<.	c #5B483C",
"[.	c #6C675F",
"}.	c #553623",
"|.	c #553A1F",
"1.	c #4C3015",
"2.	c #604228",
"3.	c #56361C",
"4.	c #49311D",
"5.	c #624023",
"6.	c #624526",
"7.	c #7F6444",
"8.	c #65472B",
"9.	c #5D4225",
"0.	c #624729",
"a.	c #533523",
"b.	c #563A29",
"c.	c #4B2D13",
"d.	c #66462D",
"e.	c #8D8B83",
"f.	c #64604B",
"g.	c #8B887F",
"h.	c #644325",
"i.	c #775A3B",
"j.	c #593E20",
"k.	c #90775B",
"l.	c #8F785B",
"m.	c #937D60",
"n.	c #573B2A",
"o.	c #7A5F44",
"p.	c #62472B",
"q.	c #694C31",
"r.	c #5C3A1D",
"s.	c #816444",
"t.	c #583C1F",
"u.	c #7F664A",
"v.	c #81684E",
"w.	c #816A4F",
"x.	c #51311F",
"y.	c #573B29",
"z.	c #7A5C42",
"A.	c #66482E",
"B.	c #6B4D32",
"C.	c #442E1A",
"D.	c #5D3C1E",
"E.	c #806243",
"F.	c #5E3E24",
"G.	c #83634C",
"H.	c #876850",
"I.	c #563826",
"J.	c #503218",
"K.	c #64462B",
"L.	c #47311D",
"M.	c #878679",
"N.	c #7B583F",
"O.	c #5B3820",
"P.	c #58381F",
"Q.	c #553825",
"R.	c #6E5036",
"S.	c #6C4E34",
"T.	c #493420",
"U.	c #88867D",
"V.	c #8C8A80",
"W.	c #7D6244",
"X.	c #856A4C",
"Y.	c #765B3D",
"Z.	c #523422",
"`.	c #7E6146",
" +	c #49311B",
".+	c #8D8B82",
"++	c #5D3B20",
"@+	c #816243",
"#+	c #7A6241",
"$+	c #8A7251",
"%+	c #826A49",
"&+	c #573F30",
"*+	c #53392B",
"=+	c #684B2E",
"-+	c #4F3114",
";+	c #664A2F",
">+	c #472D18",
",+	c #8D8C83",
"'+	c #543927",
")+	c #947259",
"!+	c #8F7658",
"~+	c #826A4B",
"{+	c #573C2D",
"]+	c #543523",
"^+	c #584031",
"/+	c #594234",
"(+	c #5B493C",
"_+	c #5A473A",
":+	c #7B5D41",
"<+	c #7D6043",
"[+	c #674A2D",
"}+	c #4E3013",
"|+	c #68482C",
"1+	c #4D2B12",
"2+	c #676455",
"3+	c #553A2A",
"4+	c #86644B",
"5+	c #593719",
"6+	c #7F5F41",
"7+	c #795E41",
"8+	c #8C7354",
"9+	c #7F6648",
"0+	c #563F31",
"a+	c #564032",
"b+	c #594538",
"c+	c #5A4739",
"d+	c #5D4D42",
"e+	c #5B473A",
"f+	c #69645C",
"g+	c #6B675E",
"h+	c #4E2A16",
"i+	c #7C5F42",
"j+	c #4B2E11",
"k+	c #674529",
"l+	c #522810",
"m+	c #7F5D44",
"n+	c #573517",
"o+	c #7D5D3F",
"p+	c #775C3E",
"q+	c #897152",
"r+	c #7C6445",
"s+	c #533422",
"t+	c #5C4B40",
"u+	c #665F58",
"v+	c #512D19",
"w+	c #7A5C40",
"x+	c #644629",
"y+	c #492B0F",
"z+	c #644227",
"A+	c #522812",
"B+	c #523728",
"C+	c #846149",
"D+	c #5C4B3F",
"E+	c #512E19",
"F+	c #66482C",
"G+	c #614427",
"H+	c #4C2F12",
"I+	c #4F2918",
"J+	c #7E5B43",
"K+	c #543215",
"L+	c #7B5C3D",
"M+	c #886F51",
"N+	c #7B6344",
"O+	c #6A655D",
"P+	c #5C493D",
"Q+	c #512F1A",
"R+	c #5B3E21",
"S+	c #50321A",
"T+	c #543119",
"U+	c #7B593B",
"V+	c #765638",
"W+	c #755A3C",
"X+	c #876E50",
"Y+	c #7A6143",
"Z+	c #5E4F45",
"`+	c #655C55",
" @	c #69655C",
".@	c #522F1B",
"+@	c #624528",
"@@	c #5F4125",
"#@	c #604326",
"$@	c #432912",
"%@	c #6C6852",
"&@	c #55331A",
"*@	c #775538",
"=@	c #78583A",
"-@	c #655D56",
";@	c #52301B",
">@	c #5E3E22",
",@	c #48301A",
"'@	c #755237",
")@	c #705032",
"!@	c #735637",
"~@	c #785D40",
"{@	c #5E4F44",
"]@	c #52301C",
"^@	c #5F4127",
"/@	c #624128",
"(@	c #634128",
"_@	c #462B19",
":@	c #57311C",
"<@	c #76533B",
"[@	c #715135",
"}@	c #755335",
"|@	c #88694A",
"1@	c #745537",
"2@	c #68635B",
"3@	c #74563C",
"4@	c #654028",
"5@	c #4B2E1C",
"6@	c #7F8124",
"7@	c #704D35",
"8@	c #634126",
"9@	c #714F32",
"0@	c #8B6949",
"a@	c #775739",
"b@	c #543420",
"c@	c #5C4B3E",
"d@	c #5D5044",
"e@	c #5D4F43",
"f@	c #594537",
"g@	c #584234",
"h@	c #705539",
"i@	c #72573C",
"j@	c #633D26",
"k@	c #462918",
"l@	c #787B21",
"m@	c #939189",
"n@	c #502A15",
"o@	c #5F3C23",
"p@	c #856348",
"q@	c #856645",
"r@	c #745738",
"s@	c #745439",
"t@	c #584335",
"u@	c #574335",
"v@	c #574234",
"w@	c #5C4D41",
"x@	c #553826",
"y@	c #71573E",
"z@	c #482911",
"A@	c #715039",
"B@	c #4D2A14",
"C@	c #492E1E",
"D@	c #686F16",
"E@	c #502C16",
"F@	c #5A371F",
"G@	c #533317",
"H@	c #87694C",
"I@	c #73583B",
"J@	c #543522",
"K@	c #563A28",
"L@	c #50361F",
"M@	c #4C2E18",
"N@	c #63422D",
"O@	c #4F2E19",
"P@	c #442B1B",
"Q@	c #4E2B15",
"R@	c #644229",
"S@	c #83654D",
"T@	c #4C3017",
"U@	c #493016",
"V@	c #6A645D",
"W@	c #836C54",
"X@	c #6E4F3A",
"Y@	c #4D2C17",
"Z@	c #5D3C27",
"`@	c #452D1C",
" #	c #7C7B6E",
".#	c #4C2B14",
"+#	c #6D4A31",
"@#	c #53321B",
"##	c #725640",
"$#	c #896F5A",
"%#	c #876D56",
"&#	c #755F49",
"*#	c #61422F",
"=#	c #4F2E1B",
"-#	c #4A2917",
";#	c #6B4C38",
">#	c #472C1A",
",#	c #838279",
"'#	c #462E1D",
")#	c #816049",
"!#	c #512E15",
"~#	c #62412A",
"{#	c #4E341D",
"]#	c #735B45",
"^#	c #745C44",
"/#	c #553522",
"(#	c #755C44",
"_#	c #5B3726",
":#	c #492A17",
"<#	c #613F2D",
"[#	c #493322",
"}#	c #704F38",
"|#	c #533720",
"1#	c #49290F",
"2#	c #5B3822",
"3#	c #593521",
"4#	c #60412E",
"5#	c #412D1B",
"6#	c #72533B",
"7#	c #4E2C11",
"8#	c #69472C",
"9#	c #4B2D15",
"0#	c #472B13",
"a#	c #553622",
"b#	c #573D2D",
"c#	c #512E1A",
"d#	c #6E4C30",
"e#	c #5A351D",
"f#	c #6D4E39",
"g#	c #5D3E2A",
"h#	c #422E1C",
"i#	c #6B4C34",
"j#	c #7B5B40",
"k#	c #4C2A0F",
"l#	c #735337",
"m#	c #5B391E",
"n#	c #4E2C13",
"o#	c #62462D",
"p#	c #60412C",
"q#	c #4D2A16",
"r#	c #422F1A",
"s#	c #6D4F37",
"t#	c #76553E",
"u#	c #6F4F33",
"v#	c #826546",
"w#	c #56321C",
"x#	c #725437",
"y#	c #58351A",
"z#	c #5F432A",
"A#	c #492F18",
"B#	c #482913",
"C#	c #73543F",
"D#	c #492B13",
"E#	c #6B4B2F",
"F#	c #767469",
"G#	c #7D7B71",
"H#	c #522F1A",
"I#	c #6C4C34",
"J#	c #61432D",
"K#	c #412B1A",
"L#	c #472515",
"M#	c #6E543F",
"N#	c #886E57",
"O#	c #503016",
"P#	c #866147",
"Q#	c #848279",
"R#	c #7D7B70",
"S#	c #53301A",
"T#	c #4B2C19",
"U#	c #644330",
"V#	c #624330",
"W#	c #422C1D",
"X#	c #472B20",
"Y#	c #6C5743",
"Z#	c #725D44",
"`#	c #4A2B16",
" $	c #4C2B16",
".$	c #7C7A70",
"+$	c #53321D",
"@$	c #6B5040",
"#$	c #5B3C2D",
"$$	c #4D2B1B",
"%$	c #44311C",
"&$	c #88735F",
"*$	c #755E4D",
"=$	c #5D4433",
"-$	c #614334",
";$	c #4A2919",
">$	c #715A42",
",$	c #816D5D",
"'$	c #695749",
")$	c #86847B",
"!$	c #59432D",
"~$	c #5B402C",
"{$	c #4A2B18",
"]$	c #89877F",
"^$	c #462D1F",
"/$	c #735645",
"($	c #816B5C",
"_$	c #6A5548",
":$	c #666057",
"<$	c #706B62",
"[$	c #5B442E",
"}$	c #4B2C1B",
"|$	c #836A5C",
"1$	c #6B5448",
"2$	c #757068",
"3$	c #5C422D",
"4$	c #856A5A",
"5$	c #6D5445",
"6$	c #605C48",
"7$	c #462B1B",
"8$	c #86695A",
"9$	c #705341",
"0$	c #757169",
"a$	c #4C2A18",
"b$	c #4A2A13",
"c$	c #482D1D",
"d$	c #4B2D17",
"                                .                                                               .                               ",
"+ + + + + + + + + + + + + + @ + # + + + + + + + + + + + + + + + + + + + + + + + + + + + + + @ + # + + + + + + + + + + + + + + + ",
"+ + + + + + + + + + + + + + + + $ + + + + + + + + + + + + + + + + + + + + + + + + + + + + + + + $ + + + + + + + + + + + + + + + ",
"+ + + + + + + + + + + + + + + + % + + + + + + + + + + + + + + + + + + + + + + + + + + + + + + + % + + + + + + + + + + + + + + + ",
"& & & & & & & & & & & * = - - - ; = - - - = = = = = = = = = = = & & & & & & & & & & & * = - - - ; = - - - = = = = = = = = = = = ",
"> > > , , , , , , , > > > > > , ' , , , ) , , , , , ! ) ) ) ) ) > > > , , , , , , , > > > > > , ' , , , ) , , , , , ! ) ) ) ) ) ",
", , , , , , , , , , , , , > , , ' , , ) ) ) , , , ) ! ! ! ! ! ! , , , , , , , , , , , , , > , , ' , , ) ) ) , , , ) ! ! ! ! ! ! ",
", , , , , , , , ) ) ) ) ) ) ! ! ' , ) ) ! ! ) ) ) ! ! ! ! ! ! ! , , , , , , , , ) ) ) ) ) ) ! ! ' , ) ) ! ! ) ) ) ! ! ! ! ! ! ! ",
", ) ) ) ) ) ) ) ) ) ) ! ! ! ! ! ' ! ! ! ! ! ~ ~ ! ! ! ! ! { ] ] , ) ) ) ) ) ) ) ) ) ) ! ! ! ! ! ' ! ! ! ! ! ~ ~ ! ! ! ! ! { ] ] ",
"! ! ! ! ! ! ! ! ! ! ! ~ ~ ~ ~ ~ ' ] ] ] ] ] ] ] ] ] ] ] ] ] ] ] ! ! ! ! ! ! ! ! ! ! ! ~ ~ ~ ~ ~ ' ] ] ] ] ] ] ] ] ] ] ] ] ] ] ] ",
"~ ] ] ] ] ] ] ] ] ] ] ] ] ] ] ] ' ] ] ] ] ] ^ ^ / / / / ( ( ( ( ~ ] ] ] ] ] ] ] ] ] ] ] ] ] ] ] ' ] ] ] ] ] ^ ^ / / / / ( ( ( ( ",
"/ / / / / / / / / / / / ^ ^ ^ ^ _ ^ ^ / : : : : : : : : / / / / / / / / / / / / / / / / ^ ^ ^ ^ _ ^ ^ / : : : : : : : : / / / / ",
"/ / / / / / / / / / / / / / : / < [ [ [ [ [ [ [ [ [ [ [ [ [ [ [ / / / / / / / / / / / / / / : / < [ [ [ [ [ [ [ [ [ [ [ [ [ [ [ ",
"[ [ : [ [ [ [ [ [ [ [ [ [ [ [ [ < } } } } } } [ [ [ [ [ [ [ [ [ [ [ : [ [ [ [ [ [ [ [ [ [ [ [ [ < } } } } } } [ [ [ [ [ [ [ [ [ ",
"} } } } } } } } } } } } } } | | < | | | | | | | | | | | | | } } } } } } } } } } } } } } } } | | < | | | | | | | | | | | | | } } ",
"1 1 1 1 1 1 1 2 1 2 2 2 | | | 2 < 2 2 2 2 2 2 2 2 2 | | 2 | | | 1 1 1 1 1 1 1 2 1 2 2 2 | | | 2 < 2 2 2 2 2 2 2 2 2 | | 2 | | | ",
"3 3 3 3 3 3 3 3 3 3 3 3 3 3 3 3 < 3 3 3 3 3 3 3 3 3 3 3 3 3 3 3 3 3 3 3 3 3 3 3 3 3 3 3 3 3 3 3 < 3 3 3 3 3 3 3 3 3 3 3 3 3 3 3 ",
"3 3 3 3 3 3 3 3 3 3 3 3 3 3 3 3 < 3 3 3 3 3 3 3 3 3 3 3 3 3 3 3 3 3 3 3 3 3 3 3 3 3 3 3 3 3 3 3 < 3 3 3 3 3 3 3 3 3 3 3 3 3 3 3 ",
"4 4 4 4 4 4 4 4 4 4 4 4 4 5 6 6 7 4 4 4 4 4 4 4 4 4 4 4 4 4 8 8 8 8 4 4 4 4 4 4 4 4 4 4 4 4 4 4 7 4 4 4 4 4 4 4 4 4 4 4 4 4 4 4 ",
"9 9 9 9 9 9 9 9 9 9 9 9 9 9 9 7 9 7 7 7 7 4 0 0 0 0 0 0 0 0 a . . a 0 0 0 0 0 0 0 0 8 7 7 7 7 7 7 7 7 7 9 9 9 b c c 9 d d d d e ",
"9 9 9 9 9 9 9 9 9 9 9 9 9 9 9 7 9 7 7 4 8 0 0 0 0 0 0 0 0 0 a . . a 0 0 0 0 0 0 0 0 f 8 8 7 7 7 7 7 7 7 9 9 9 b 9 9 d d d d d e ",
"9 9 9 9 9 9 9 9 9 9 9 9 9 9 9 7 9 7 4 g h 0 0 0 0 0 0 0 0 0 a . . a 0 0 0 0 0 0 0 0 f i j 8 7 7 7 7 7 7 9 9 9 k 9 9 d d d d d e ",
"9 9 9 9 9 9 9 9 9 9 9 9 9 9 9 7 7 8 l m n 0 0 0 0 0 0 0 0 0 a . . a 0 0 0 0 0 0 0 0 f i j o 4 7 7 7 7 7 9 9 9 k 9 9 9 d d d d e ",
"9 9 9 9 9 9 9 9 9 9 9 9 9 9 9 7 4 p q r s 0 0 0 0 0 0 0 0 0 a . . a 0 0 0 0 0 0 0 0 t i u v w 4 7 7 7 7 9 9 9 k 9 9 9 d d d d e ",
"9 9 9 9 9 9 9 9 9 9 9 9 9 9 9 7 8 l x y z 0 0 0 0 0 0 0 0 0 a . . a 0 0 0 0 0 0 0 0 A B C D E 4 7 7 7 7 9 9 9 k c c 9 d d d d d ",
"3 3 3 3 3 3 3 3 3 3 3 3 3 3 ^ 4 F G H y I 0 0 0 0 0 0 0 0 0 J . . a 0 0 0 0 0 0 0 0 K L M N O P 4 / Q Q 3 3 3 R 3 3 3 3 3 3 3 3 ",
"3 3 3 3 3 3 3 3 3 3 3 3 3 3 ^ 4 S l T U V 0 0 0 0 0 0 0 0 0 J . . a 0 0 0 0 0 0 0 0 A W X Y Z ` 8 [ Q Q 3 3 3  .3 3 3 3 3 3 3 3 ",
"..........+.+.+.......@.@.#.$.%.&.*.=.-.;.0 0 0 0 0 0 0 0 0 J . . a 0 0 0 0 0 0 0 0 >.,.'.).!.~.{.].^.R R /.(._.:.<.@.@.@.@.@.@.",
", , , , , , +.[.[.[.[.[.[., , }.|.1.2.3.4.0 0 0 0 0 0 0 0 0 J . . a 0 0 0 0 0 0 0 0 5.6.7.8.9.0.a., , , [.[.[.[.[.[.[.[.[.[.[.[.",
"3 3 3 3 3 3 +.3 3 3 3 3 3 3 ^ b.S p c.d.V e.e.e.e.e.e.e.e.e.f.. . f.e.e.e.e.e.e.e.g.h.i.j.k.l.m.].^ 3 3 3 3 3 3 3 3 3 3 3 3 3 3 ",
"3 3 3 3 3 3 +.3 3 3 3 3 3 3 ] n.o.p.c.q.4.f.f.f.f.f.f.f.f.f.. . . . f.f.f.f.f.f.f.f.r.s.t.u.v.w.x.] 3 3 3 3 3 3 3 3 3 3 3 3 3 3 ",
"3 3 3 3 3 3 +.3 3 3 3 3 3 3 ] y.z.T A.B.C.. . . . . . . . . . . . . . . . . . . . . D.E.B F.G.H.x.] 3 3 3 3 3 3 3 3 3 3 3 3 3 3 ",
"3 3 3 3 3 3 +.3 3 3 3 3 3 3 ] I.J.K.q.H L.0 0 0 0 0 0 0 0 0 . . . . M.M.M.M.M.M.M.M.D.E.B N.O.P.x.] 3 3 3 3 3 3 3 3 3 3 3 3 3 3 ",
"3 3 3 3 3 3 +.3 3 3 3 3 3 3 ] Q.R.S.B.A.T.0 0 0 0 0 0 0 0 0 U.. . V.M.M.M.M.M.M.M.M.D.E.C W.X.Y.Z.] 3 3 3 3 3 3 3 3 3 3 3 3 3 3 ",
"3 3 3 3 3 3 R 3 3 3 3 3 3 3 ] y.`.K.q.H  +0 0 0 0 0 0 0 0 0 U.. . .+M.M.M.M.M.M.M.M.++@+C #+$+%+y.] 3 3 3 3 3 3 3 3 3 3 3 3 3 3 ",
"3 3 3 3 3 3 &+3 3 3 3 3 3 3 ] *+i =+=+-+;+>+0 0 0 0 0 0 0 0 U.. . ,+M.M.M.M.M.M.M.'+)+r.s.C !+~+y.3 3 3 3 3 3 3 3 3 3 3 3 3 3 3 ",
"#.#.#.{+{+ .]+^+/+(+@.@.@._+_+:+<+[+[+}+|+1+0 0 0 0 0 0 U.2+2+. . ,+M.M.M.M.M.M.M.3+4+5+6+7+8+9+W 0+a+b+c+#.(+d+(+(+e+@.@.@.@.@.",
"f+f+f+f+f+f+f+f+f+f+f+f+f+g+g+h+i+8.8.j+k+l+0 0 0 0 0 0 0 U.. . . ,+M.M.M.M.M.M.M.3+m+n+o+p+q+r+s+[.[.[.[.[.! t+[.[.[.[.[.[.[.[.",
"u+u+u+u+u+u+u+u+u+u+u+u+u+u+[ v+w+x+x+y+z+A+0 0 0 0 0 0 0 U.. . . ,+M.M.M.M.M.M.M.B+C+n+o+p+q+r+s+f+u+u+u+u+u+D+u+u+u+u+u+u+u+u+",
"u+u+u+u+u+u+u+u+u+u+u+u+u+u+f+E+w+F+G+H+F.I+0 0 0 0 0 0 0 0 U.. . ,+M.M.M.M.M.M.M.B+J+K+L+Y.M+N+a.O+Q Q u+u+u+P+u+u+u+u+u+u+u+u+",
"u+u+u+u+u+u+u+u+u+u+u+u+u+u+f+Q+w+x+G+R+S+0 0 0 0 0 0 0 0 0 U.. . ,+M.M.M.M.M.M.M.M.T+U+V+W+X+Y+}.O+Q Q u+u+u+Z+`+u+u+u+u+u+u+u+",
"u+u+u+u+u+u+u+u+u+u+u+u+u+u+ @.@w++@@@#@$@0 0 0 0 0 0 0 0 0 U.. . %@,+M.M.M.M.M.M.M.&@*@=@W+X+Y+a.O+Q Q u+u+u+Z+-@u+u+u+u+u+u+u+",
"u+u+u+u+u+u+u+u+u+u+u+u+u+u+ @;@w+@@#@>@,@0 0 0 0 0 0 0 0 0 U.. . . %@,+M.M.M.M.M.M.&@'@)@!@X.~@}.O+Q Q u+u+u+{@u+u+u+u+u+u+u+u+",
"u+u+u+u+u+u+u+u+u+u+u+u+u+u+ @]@=.^@/@(@_@0 0 0 0 0 0 0 0 0 U.. . . . ,+M.M.M.M.M.M.:@<@[@}@|@1@}.O+Q Q u+u+u+]+u+u+u+u+u+u+u+u+",
"u+u+u+-@u+u+u+u+u+u+u+u+u+u+2@4 3@2./@4@5@0 0 0 0 0 0 0 0 0 U.. 6@6@. ,+M.M.M.M.M.M.:@7@8@9@0@a@b@2@Q Q u+u+u+]+u+u+u+u+u+u+u+u+",
"@.@.@.c@c@(+c@c@d@d@d@d@e@f@g@h@i@^@-.j@k@e.e.e.e.e.e.e.e.e.e.. . 6@l@l@m@m@m@m@m@m@n@o@p@D.q@r@s@t@u@v@R R R R R ^+w@w@w@w@w@w@",
"[.[.[.[.[.[.c@[.[.[.[.[.[.[.[.x@y@z@A@B@C@f.f.f.f.f.f.f.f.f.f.. . D@l@D@%@%@%@%@%@%@E@F@<@G@H@I@J@[.[.[.[.[.[.[.[.[.[.[.[.[.[.[.",
"u+u+u+u+u+u+c@u+u+u+u+u+u+u+: K@L@M@N@O@P@. . . . . . . . . . . . . D@D@. . . . . . Q@R@3.S@T@U@J@3 u+u+u+u+u+u+u+u+u+u+u+u+u+u+",
"u+u+u+u+u+u+c@u+u+u+u+u+u+u+V@x@W@X@Y@Z@`@ # # # # # # # # #. . . . 0 0 0 0 0 0 0 0 .#+#@###$#%#J@V@u+u+u+u+u+u+u+u+u+u+u+u+u+u+",
"u+u+u+u+u+u+..u+u+u+u+u+u+u+V@x@&#*#=#-#;#># # # # # # # # #,#. . a 0 0 0 0 0 0 0 '#)#!#~#{#]#^#/#V@u+u+u+u+u+u+u+u+u+u+u+u+u+u+",
"u+u+u+u+u+u+@.u+u+u+u+u+u+u+V@x@(#Y@_#:#<#B@ # # # # # # # #,#. . a 0 0 0 0 0 0 0 [#}#1+y |#^#^#/#O+u+u+u+u+u+u+u+u+u+u+u+u+u+u+",
"u+u+u+u+u+u+R u+u+u+u+u+u+u+V@]@1#2#3#:#4#I+ # # # # # # # #,#. . a 0 0 0 0 0 0 0 5#6#7#8#2.9#0#a#O+u+u+u+u+u+u+u+u+u+u+u+u+u+u+",
"u+u+u+u+u+u+b#u+u+u+u+u+u+u+V@c#d#e#E@f#g#I+ # # # # # # # #,#. . a 0 0 0 0 0 0 0 h#i#j#k#m [@=+a#O+u+u+u+u+u+u+u+u+u+u+u+u+u+u+",
"u+u+u+u+u+u+/.u+u+u+u+u+u+u+V@E@l#m#n#o#p#q# # # # # # # # #,#. . a 0 0 0 0 0 0 0 r#s#t#1+u#v#!@a#V@u+u+u+u+u+u+u+u+u+u+u+u+u+u+",
"w#w#w#w#w#w#w#w#w#w#w#w#w#w#w#w#x#y#1+z#A# # # # # # # # # #,#. . a 0 0 0 0 0 0 0 0 B#C#D#E#@+!@4 4 4 4 w#w#w#w#w#w#w#w#w#w#w#w#",
"F#F#F#F#F#F#F#F#F#F#F#F#F#F#F#G#H#B@I#J#K# # # # # # # # # #,#. . a 0 0 0 0 0 0 0 0 L#M#N#O#P#< Q#F#F#F#F#F#F#F#F#F#F#F#F#F#F#F#",
"F#F#F#F#F#F#F#F#F#F#F#F#F#F#F#R#S#T#U#V#W# # # # # # # # # #,#. . a 0 0 0 0 0 0 0 0 X#Y#Z#`# $4 Q#F#F#F#F#F#F#F#F#F#F#F#F#F#F#F#",
"F#F#F#F#F#F#F#F#F#F#F#F#F#F#F#.$+$@$#$$$ # # # # # # # # # #,#. . a 0 0 0 0 0 0 0 0 0 %$Z#&$*$4 Q#F#F#F#F#F#F#F#F#F#F#F#F#F#F#F#",
"F#F#F#F#F#F#F#F#F#F#F#F#F#F#F#.$4 =$-$;$ # # # # # # # # # #,#. . a 0 0 0 0 0 0 0 0 0 h#>$,$'$4 Q#F#F#F#F#F#F#F#F#F#F#F#F#F#F#F#",
")$)$)$)$)$)$)$)$)$)$)$)$)$)$)$)$4 !$~${$ # # # # # # # # #]$e.. . a 0 0 0 0 0 0 0 0 0 ^$/$($_$4 e.e.)$)$)$)$)$)$)$)$)$)$)$)$)$)$",
":$:$:$:$:$:$:$:$:$:$:$:$:$:$:$<$4 [$n  # # # # # # # # #]$f.f.. . a 0 0 0 0 0 0 0 0 e.e.}$|$1$4 2$:$:$:$:$:$:$:$:$:$:$:$:$:$:$:$",
":$:$:$:$:$:$:$:$:$:$:$:$:$:$:$<$4 3$`@]$]$]$]$]$]$]$]$]$f.. . . . f.e.e.e.e.e.e.e.e.f.f.-#4$5$4 2$:$:$:$:$:$:$:$:$:$:$:$:$:$:$:$",
":$:$:$:$:$:$:$:$:$:$:$:$:$:$:$<$4 *#`@f.6$6$6$6$6$6$6$f.. . . . . . f.f.f.f.f.f.f.f.. . 7$8$9$4 0$:$:$:$:$:$:$:$:$:$:$:$:$:$:$:$",
"4 4 4 4 4 4 4 4 4 4 4 4 4 4 4 4 a$b$. . . . . . . . . . . . . . . . . . . . . . . . . . . c$Y@d$4 4 4 4 4 4 4 4 4 4 4 4 4 4 4 4 "};
