/* XPM */
static char * G_Guardian_xpm[] = {
"64 64 183 2",
"  	c #72751B",
". 	c #807F72",
"+ 	c #7C7B6E",
"@ 	c #88867D",
"# 	c #848279",
"$ 	c #302C2E",
"% 	c #5A5353",
"& 	c #5A5D4B",
"* 	c #4A6A06",
"= 	c #6F7457",
"- 	c #4C6C09",
"; 	c #596641",
"> 	c #898970",
", 	c #4B6B08",
"' 	c #6C7E46",
") 	c #A0938E",
"! 	c #84876A",
"~ 	c #4B6B07",
"{ 	c #7D7071",
"] 	c #D9DF47",
"^ 	c #787B21",
"/ 	c #7F8226",
"( 	c #9C9189",
"_ 	c #7F8563",
": 	c #64604B",
"< 	c #8D8B83",
"[ 	c #605C48",
"} 	c #89877F",
"| 	c #9F938D",
"1 	c #6F7F4B",
"2 	c #66624D",
"3 	c #6C7E45",
"4 	c #718050",
"5 	c #4D6D09",
"6 	c #656C17",
"7 	c #87896F",
"8 	c #6B7E45",
"9 	c #4E6E0E",
"0 	c #62773A",
"a 	c #50700F",
"b 	c #878679",
"c 	c #6F7459",
"d 	c #72735E",
"e 	c #78825A",
"f 	c #757362",
"g 	c #607834",
"h 	c #3E4A29",
"i 	c #8E8C83",
"j 	c #918C7C",
"k 	c #6E7457",
"l 	c #687D40",
"m 	c #517111",
"n 	c #3A422A",
"o 	c #7A835B",
"p 	c #6E7357",
"q 	c #353A2C",
"r 	c #8E8C84",
"s 	c #85876B",
"t 	c #6C7454",
"u 	c #32322D",
"v 	c #748153",
"w 	c #657743",
"x 	c #888970",
"y 	c #607736",
"z 	c #7B716D",
"A 	c #607737",
"B 	c #72735F",
"C 	c #38402A",
"D 	c #5A5B4F",
"E 	c #978F83",
"F 	c #4E6E0D",
"G 	c #747361",
"H 	c #767266",
"I 	c #4E6E0F",
"J 	c #657643",
"K 	c #767364",
"L 	c #63763E",
"M 	c #4C6C0A",
"N 	c #59722D",
"O 	c #818666",
"P 	c #495E25",
"Q 	c #737261",
"R 	c #4E6E0C",
"S 	c #677549",
"T 	c #7A716C",
"U 	c #797269",
"V 	c #677649",
"W 	c #5A6A3B",
"X 	c #71745B",
"Y 	c #617638",
"Z 	c #3E4A2A",
"` 	c #617739",
" .	c #6A754E",
"..	c #6A754D",
"+.	c #607735",
"@.	c #3D482A",
"#.	c #9D938B",
"$.	c #637740",
"%.	c #5E7830",
"&.	c #35372D",
"*.	c #5A7329",
"=.	c #6C7553",
"-.	c #71735C",
";.	c #808664",
">.	c #3D4829",
",.	c #5A6048",
"'.	c #687549",
").	c #4C6C08",
"!.	c #7A716B",
"~.	c #312E2E",
"{.	c #8D8C83",
"].	c #797169",
"^.	c #70745A",
"/.	c #647642",
"(.	c #8D8B82",
"_.	c #6C6852",
":.	c #939189",
"<.	c #6C7551",
"[.	c #988F83",
"}.	c #808665",
"|.	c #5A5C4C",
"1.	c #677548",
"2.	c #68754B",
"3.	c #4D6D0A",
"4.	c #34362D",
"5.	c #908B7A",
"6.	c #5D772B",
"7.	c #757261",
"8.	c #62763C",
"9.	c #757262",
"0.	c #38402C",
"a.	c #5A683E",
"b.	c #4F6F0E",
"c.	c #5F7731",
"d.	c #5F7732",
"e.	c #8A8A74",
"f.	c #34372C",
"g.	c #3F4D2A",
"h.	c #8D8B76",
"i.	c #667644",
"j.	c #3B442A",
"k.	c #69754B",
"l.	c #69764C",
"m.	c #39402C",
"n.	c #85876C",
"o.	c #4E6E0B",
"p.	c #4D6D0C",
"q.	c #63773D",
"r.	c #9C9188",
"s.	c #647641",
"t.	c #4F6F0F",
"u.	c #3B452B",
"v.	c #383E2C",
"w.	c #6B754F",
"x.	c #69754C",
"y.	c #4D6D0B",
"z.	c #948D7F",
"A.	c #6B7550",
"B.	c #7A716D",
"C.	c #322F2E",
"D.	c #506F0F",
"E.	c #6C744F",
"F.	c #687648",
"G.	c #5F7734",
"H.	c #5A6246",
"I.	c #596F32",
"J.	c #4B6B09",
"K.	c #777266",
"L.	c #7C706F",
"M.	c #363A2C",
"N.	c #5A5F49",
"O.	c #657742",
"P.	c #64763F",
"Q.	c #547416",
"R.	c #3C462B",
"S.	c #87867D",
"T.	c #87857C",
"U.	c #7F8124",
"V.	c #686F16",
"W.	c #88867E",
"X.	c #838279",
"Y.	c #88877E",
"Z.	c #828175",
"    . . . . . . . . . . . .         + + + + + + + + + + + +         . . . . . . . . . . . .         + + + + + + + + + + + +     ",
"  @ . . . . . . . . . . . . @     # + + + + + + + + + + + + #   $ $ . . . . . . . . . . . . @     # + + + + + + + + + + + + #   ",
"  @ . . . . . . . . . . . . @     # + + + + + + + + + + + + # $ % % $ . . . . . . . . . . . @     # + + + + + + + + + + + + #   ",
"  @ . . . . . . . . . . . . @     # + + + + + + + + + + + + $ & * % % $ . . . . . . . . . . @     # + + + + + + + + + + + + #   ",
"  @ . . . . . . . . . . . . @     # + + + + + + + + + + + $ % & = - % $ . . . . . . . . . . @     # + + + + + + + + + + + + #   ",
"  @ . . . . . . . . . . . . @     # + + + + + + + + + + $ % % % ; > , % $ . . . . . . . . . @     # + + + + + + + + + + + + #   ",
"  @ . . . . . . . . . . . . @     # + + + + + + + + + $ % % % % % ' - % % $ . . . . . . . . @     # + + + + + + + + + + + + #   ",
"  @ . . . . . . . . . . . . @     # + + + + + + + + + $ % % % % ) ! ~ ) % % $ . . . . . . . @     # + + + + + + + + + + + + #   ",
"  @ . . . . . . . . . . . . @     # + + + + + + + + + $ % ) % % ) $ $ { ) % $ . . . . . . . @     # + + + + + + + + + + + + #   ",
"  @ . . . . . . . . . . . . @     # + + + + + + + + + $ % % { % $ ] ] $ % ) $ . . . . . . . @     # + + + + + + + + + + + + #   ",
"  @ . . . . . . . . . . . . @     # + + + + + + + + + $ % % % ) $ ] ] $ % ) $ . . . . . . . @     # + + + + + + + + + + + + #   ",
"  @ . . . . . . . . . . . . @     # + + $ $ $ + + + $ $ % % % ) ) $ $ { % ) $ . . . . $ $ ^ /     # + ^ ^ + + + + + + + + + #   ",
"  @ . . . . . . . . . . . . $ $   # + $ ) ) $ + $ $ { ) $ % % ) ( _ * { % ) $ . . . $ ) ) $ / / $ $ ^ ^ + + + + + + + + + + @   ",
"  : < < < < < < < < < < < $ ) $   [ } $ ) { { $ { { { ) $ % { % | 1 * { % ) $ < $ $ $ ) ) ) $ ^ $ ) $ ^ } } } } } } } } } <     ",
"    : 2 2 2 2 2 2 2 2 2 $ ) ) $     $ ) { { $ { { { { ) $ % { % ) 3 , { % { $ $ 4 5 $ { ) ) $ ^ $ ) $ 6 : : : [ [ [ [ [ : :     ",
"                        $ ) { $   $ ) { { $ { { { { { 7 $ % { % ) 8 9 { % $ ) ) 0 a $ { { ) $ 6 $ ) $                           ",
"    b b b b b b b b b $ ) ) c $ $ ) % { { $ { { { { d , $ $ { % ) e 9 { $ ) { { f g h % { ) $   $ ) ) $ b b b b b b b b b b     ",
"  i b b b b b b b b b $ ) j , $ $ ) % { { $ % { { k ~ ) ) $ $ % ) l m n o { { { { p q % { { ) $ { ) ) $ b b b b b b b b b b r   ",
"  i b b b b b b b b b $ ) s * $ ) { % { { $ % % { t - { ) $ % $ $ * u v w { { { { % $ % { { { $ { ) ) ) $ b b b b b b b b b r   ",
"  i b b b b b b b b $ ) ) 7 * $ { { % { { $ % % % c * { ) $ % % $ $ x y z { { { % ) $ % { { { $ A ) ) ) $ b b b b b b b b b r   ",
"  i b b b b b b b b $ ) ) B , $ { { { % { $ % % % c * { ) C D $ ) E F G H { { % ) { $ { { { % $ I J ) ) $ b b b b b b b b b r   ",
"  i b b b b b b b b $ ) K L M $ { { % { $ $ { ) % N * { { O P ) { Q R { { { { ) { $ % $ % % % $ ~ S T ) ) $ b b b b b b b b r   ",
"  i b b b b b b b $ ) U V ~ $ % $ { % $ $ { { { ( W , X Y Z ) { H ` * { { { { { $ $ % $ % % % $ * I  .) ) $ b b b b b b b b i   ",
"  i b b b b b b b $ { .., $ % { $ { % $ % $ { { { ( * +.@.#.{ { T J , % % $ $ $ $ $ % $ % % $ ) $ - $.{ ) $ b b b b b b b b i   ",
"  i b b b b b b $ ) $ * $ % { { { $ % $ % % $ { { { { $ ) { { { z %., $ $ ) { { { $ % % $ % $ { ) &.*.=.) $ b b b b b b b b i   ",
"  i b b b b b b $ { ) $ % { { ) { { $ % % $ $ $ { { $ ) { { { { { $ $ ) * { { { % $ % % % $ $ { -.;.>.,.{ ) $ b b b b b b b i   ",
"  i b b b b b b $ { { ) $ % { ) ) { $ % $ . { ) $ $ ) { { { { { $ ) ) { * { { { $ . $ % % % $ { '.).) $ $ ) $ b b b b b b b i   ",
"  i b b b b b $ ) { { { ) $ % { { $ $ $ . . $ { ) ) $ $ $ { { $ ) { { * { { { % $ . . $ % $ ) !.V * { ) ( ~.$ b b b b b b b {.  ",
"  i b b b b b $ ) ) { { * ) $ % % $ . . . . $ { { { ) ) ) $ $ $ { { { * { { { % $ . . . $ ) $ ]...* { ^./.s Z b b b b b b b (.  ",
"  _.:.:.:.:.:.$ ) ) ) A * <.[.$ $ $ < < < < < $ { { { { * }.E ) $ { { * { { % $ < < < < $ ) $ |.1.* T 2.3.4.~.:.:.:.:.:.:.:._.  ",
"    2 2 _._._.$ { ) ) 5.* 6.7.) ) $ : : : : : : $ { { { * 8.9.{ ) $ $ * { % $ : : : : : $ { ) 0.a.* G b.$ ) $ _._._._._._._.    ",
"              $ { { ) ) ) F c.{ { $             $ % { { * d.{ { { ) ) $ % % $           $ { { ) $ $ % $ e.f.                    ",
"    . . . . . $ % { { { ) | ( A g.$ . . . . . . $ % % { R y { { { { { $ $ $ b b b b b b $ { { { $ $ $ h.i.j.. . . . . . . .     ",
"  @ . . . . . . $ $ % { k.F | ) $ $ . . . . . $ ) $ % * 9 l.{ { $ $ m.) { $ b b b b b b $ { $ $ ) j n.o.F $ . . . . . . . . @   ",
"  @ . . . . . . $ ) $ $ p.i.z $ ) $ . . . . $ ) { $ % * q.B $ $ ) r.s.{ $ { $ b b b b b b $ ) { { <.t.{ $ . . . . . . . . . @   ",
"  @ . . . . . . $ { ) ) $ m.$ ) { $ . . . . $ ) { $ % M A u.) { { ).J $ ) { $ b b b b b b b v.w.!.x.y.{ $ . . . . . . . . . @   ",
"  @ . . . . . . $ { { $ $ ) z.s.$ @ . . . . $ ) { { $ * m.) { { A.m B.$ ) { $ b b b b b b b C.D.E.F.M { $ . . . . . . . . . @   ",
"  @ . . . . . . . $ $ ) ) { A 9 $ @ . . . . $ { ) $ $ $ % { { { G.- $ ) { $ b b b b b b b $ { u H.I.J.% $ $ . . . . . . . . @   ",
"  @ . . . . . . . $ ) K.L.y * * $ @ . . . . . $ $ % % $ % % { z s.M.$ ) { $ b b b b b b b $ % $ $ $ $ $ { { $ . . . . . . . @   ",
"  @ . . . . . . $ $ N.O.P.Q.$ $ $ @ . . . . . . $ % % $ $ % % % R.% % $ { $ b b b b b b b b $   $ { $ . $ % $ . . . . . . . @   ",
"  @ . . . . . $ { { 4.* * $ @ $ { $ . . . . . . . $ $ { { $ % % $ % % % $ $ b b b b b b b b i   $ { $ . . $ . . . . . . . . @   ",
"  @ . . . . . $ % $ . $ $ $ @ $ % $ . . . . . . . $ % $ { ) $ $ { $ % % $ b b b b b b b b b i   $ % $ . . . . . . . . . . . <   ",
"  @ . . . . . $ % $ . $ { $ @   $ @ . . . . . . . . $ $ { { ) { $ % % $ b b b b b b b b b b i     $ . . . . . . . . . . . < :   ",
"  @ . . . . . . $ . . $ { $ @     @ . . . . . . . . . $ { { ) { $ % $ {.b b b b b b b b b b i     S.. . . . . . . . . . < :     ",
"  @ . . . . . . . . . . $ ^ :     @ . . . . . . . . . . $ { ) { $ $   {.b b b b b b b b b b i     T.. . . . . . . . . < :       ",
"  : < < < < < / ^ < < ^ / 6       : < < < < < < < < < < < $ ) { $ U.^ ^ :.:.:.:.:.:.:.:.:.:.:     : < < < < < < < < < :         ",
"    : : : : : 6 ^ ^ : ^ ^           : : : : : : : : : : : : $ $   V.^ V._._._._._._._._._._.        : : : : : : : : :           ",
"                6 ^ ^ ^ 6                                           V.V.                                                        ",
"    . . . . . . 6 ^ ^ 6                   + + + + + + + + +         . . . . . . . . . .             . . . . . . }     . . .     ",
"  W.. . . . . . . 6 ^                   + + + + + + + + + + X.    S.. . . . . . . . . . . .       Y.. . . . . . }   . . . . W.  ",
"  W.. . . . . . . . . . .             + + + + + + + + + + + X.    S.. . . . . . . . . . . . @     Y.. . . . . } : . . . . . W.  ",
"  W.. . . . . . . . . . . . @     # + + + + + + + + + + + + X.    S.. . . . . . . . . . . . @     Y.^ ^ . } } :   . . . . . W.  ",
"  W.. . . . . . . . . . . . @     # + + + + + + + + + + + + X.    S.. . . . . . . . . . . . @     U.U.} } : :     . . . . . W.  ",
"  W.. . . . . . . . . . . . #     ^ + + + + + + + + + + + + X.    S.. . . . . . . . . . . . @   ^ ^ V.: :       . . . . . . W.  ",
"  @ . . . . . . . . . . . . #   U.U.+ + + + + + + + + + + + X.    S.. . . . . . . . . . . . @   ^ ^ V.        . . . . . . . @   ",
"  @ . . . . . . . . . . . . # ^ U.V.+ + + + + + + + + + + + X.    S.. . . . . . . . . . . . @   ^ V.      . . . . . . . . . @   ",
"  @ . . . . . . . . . . . . # ^ ^ # + + + + + + + + + + + + X.    S.. . . . . . . . . . . . @         . . . . . . . . . . . @   ",
"  @ . . . . . . . . . . . . @ V.V.# + + + + + + + + + + + + X.    S.. . . . . . . . . . . . @     Y.. . . . . . . . . . . . @   ",
"  @ . . . . . . . . . . . . @     # + + + + + + + + + + + + X.    S.. . . . . . . . . . . . @     Y.. . . . . . . . . . . . @   ",
"  S.. . . . . . . . . . . . @     # + + + + + + + + + + + } <     S.. . . . . . . . . . . < <     Y.. . . . . . . . . . . . S.  ",
"  T.. . . . . . . . . . . . @     @ + + + + + + + + + + } : :     S.. . . . . . . . < < ^ U.U.    Y.Z.. . . . . . . . . . . T.  ",
"  : < < < < < < < < < < < < :     : < } } } } } } } } } :         : < < < < < < < < : : : U.^ ^   : < < < < < < < < < < < < :   ",
"    : : : : : : : : : : : :         : : [ [ [ [ [ [ [ :             : : : : : : : :       V.^ ^     : : : : : : : : : : : :     ",
"                                                                                            V.^                                 "};
