/* XPM */
static char * G_Guardian_xpm[] = {
"120 120 10 1",
" 	c #C0D470",
".	c #FFFFFF",
"+	c #A4C263",
"@	c #222034",
"#	c #EFC379",
"$	c #FBF236",
"%	c #D2E077",
"&	c #E8EEAA",
"*	c #CBDBFC",
"=	c #C5D0CC",
"                                                                                                                        ",
"                                                                                                                        ",
"                                                                                                                        ",
"                                                                                                                        ",
"                                       ......                   ++ ++                                                   ",
"                                       ......                   ++ ++                                                   ",
"                      ++            .............  +              +                             +++++++                 ",
"                     +            .................                                           +++++++++++++             ",
"                     +            .................                                           +++++++++++++             ",
"                     +          ....................                                          +++++++++++++++           ",
"                     +          ....................                                          +++++++++++++++           ",
"       ++                     ...........@@...........                                        +++++++++++++++           ",
"       ++                     ...........@@...........                                        +++++++++++++++           ",
"         ++                   ..........................                                      +++++++++++++++           ",
"         ++                   ..........................                                      +++++++++++++++           ",
"         ++        ++       ............................                                        +++++++++++             ",
"         ++        ++       ............................                                        +++++++++++             ",
"                 ++       ##..............................                     ++ ++                                    ",
"                 ++       ##..............................                     ++ ++                                    ",
"                 ++     ##$$..............................                       +                         +++++++      ",
"                 ++     ##$$..............................                       +                         +++++++      ",
"                      ##$$$$$$............................                                               +++++++++++    ",
"                     #$$$$##$$$$..........................                                               +++++++++++    ",
"                     #$$$$##$$$$..........................                                               +++++++++++    ",
"                   ##$$$$$$$$$$$$$......................           ++  ++                                  +++++++      ",
"                   ##$$$$$$$$$$$$$......................           ++  ++                                  +++++++      ",
"                 ##$$$$$$$$$$$$$$$##..................               ++                                                 ",
"                 ##$$$$$$$$$$$$$$$##..................               ++                                                 ",
"               ##$$$$$$$$$$$$$$$##             .......                                                                  ",
"               ##$$$$$$$$$$$$$$$##             .......                                                                  ",
"             ##$$$$$$$$$$$$$$$##               .........                                                                ",
"             ##$$$$$$$$$$$$$$$##               .........                                                                ",
"           ##$$$$$$$$$$$$$$$##                 .........                                                                ",
"           ##$$$$$$$$$$$$$$$##                 .........                                                                ",
"         ##$$$$$$$$$$$$$$$##                   .........                                                                ",
"         ##$$$$$$$$$$$$$$$##                   .........                                                                ",
"         ##$$$$$$$$$$$$$##                     ...........                                      %%%%%%%%%               ",
"       ##$$$$$$$$$$$$$##                       ...........                                    %%%%%%%%%%%%%             ",
"       ##$$$$$$$$$$$$$##                       ...........                                    %%%%%%%%%%%%%             ",
"      #$$$$$$$$$$$$$$#                         .............           &&  &&                 %%%%%%%%%%%%%             ",
"      #$$$$$$$$$$$$$$#                         .............           &&  &&                 %%%%%%%%%%%%%             ",
"      #$$$$$$$$$$$$##                            ...........             &&                     %%%%%%%%%               ",
"      #$$$$$$$$$$$$##                            ...........             &&                     %%%%%%%%%               ",
"    ##$$$$$$$$$$$##                              ...........                                                            ",
"    ##$$$$$$$$$$$##                              ...........                                                            ",
"    ##$$$$$$$$$##                                .............                                             %%%%%%%      ",
"    ##$$$$$$$$$##                                .............                                             %%%%%%%      ",
"  $$$$$$$$$$$##    &&                              .............                                       %%%%%%%%%%%%%    ",
"  $$$$$$$$$$$##    &&                              .............                                       %%%%%%%%%%%%%    ",
"  $$$$$$$####        &               &&  &&        .............                                       %%%%%%%%%%%%%    ",
"  $$$$$$$####        &               &&  &&        .............                                       %%%%%%%%%%%%%    ",
"    $$$$$            &                 &&           ............                              %%%%%      %%%%%%%%%      ",
"                     &                              ..............               ...........%%%%%%%%%          *        ",
"                     &                              ..............               ...........%%%%%%%%%          *        ",
"                                                    ..............             .................%%%%%        **=**      ",
"                                                    ..............             .................%%%%%        **=**      ",
"                                                    ..............           ......................        **=====**    ",
"                                                    ..............           ......................        **=====**    ",
"                                                      .............        ..........................    **==...==**    ",
"                                                      .............        ..........................    **==...==**    ",
"                                                      .............  ....................................**==...==**    ",
"                                                      .............  ....................................**==...==**    ",
"                                                        ...............................................**==.....==**    ",
"                                                        ...............................................**==.....==**    ",
"                                                      ...............................................**==.......==**    ",
"                                                      ...............................................**==.......==**    ",
"                      ++                       ++  +  ...........................................****==.........==**    ",
"                     +                           ++   ..........................................*====...........==**    ",
"                     +                           ++   ..........................................*====...........==**    ",
"                     +                                ......................................****=...............==**    ",
"                     +                                ......................................****=...............==**    ",
"       ++                                             ...................*******************====................==**    ",
"       ++                                             ...................*******************====................==**    ",
"         ++                                           ...................**....................................=**      ",
"         ++                                           ...................**....................................=**      ",
"         ++        ++                                 ...................**....................................=**      ",
"         ++        ++                                 ...................**....................................=**      ",
"                 ++                                     .................**....................................=**      ",
"                 ++                                     .................**....................................=**      ",
"                 ++                 +  ++               .................**..................................==*..      ",
"                 ++                 +  ++               .................**..................................==*..      ",
"                                     ++                 .................**................................==**...++    ",
"                                                        ...................**............................==**.....++    ",
"                                                        ...................**............................==**.....++    ",
"                                                          ...................*******...............======**.....++      ",
"                                                          ...................*******...............======**.....++      ",
"                                                            ........................********.......******.......        ",
"                                                            ........................********.......******.......        ",
"                                                            ................................*******............         ",
"                                                            ................................*******............         ",
"                                                              .................................................         ",
"                                                              .................................................         ",
"                                                                .............................................           ",
"                                                                .............................................           ",
"                                                                  ...........................................           ",
"                                                                  ...........................................           ",
"                                                   &  &&           ........................................             ",
"                                                    &&                 ....................................             ",
"                                                    &&                 ....................................             ",
"             &&                                                        &&................................%%             ",
"             &&                                                        &&................................%%             ",
"           &&                                                            &&  ..........................%%               ",
"           &&                                                            &&  ..........................%%               ",
"      &    &&                                                                    *...................                   ",
"      &    &&                                                                    *...................                   ",
"       &&  &&                                                                    *                 **      %%%%%%%      ",
"       &&  &&                                                                    *                 **      %%%%%%%      ",
"       &&          &&                                                          **                  **  %%%%%%%%%%%%%    ",
"       &&          &&                                                          **                  **  %%%%%%%%%%%%%    ",
"       &&            &               &&  &&                                    **                  **  %%%%%%%%%%%%%    ",
"       &&            &               &&  &&                                    **                  **  %%%%%%%%%%%%%    ",
"                     &                 &&                                    **               %%%%%**    %%**%%%%%      ",
"                     &                                                     **               %%%%%%%**  ****             ",
"                     &                                                     **               %%%%%%%**  ****             ",
"                                                                   ********                 %%%%%%%****                 ",
"                                                                   ********                 %%%%%%%****                 ",
"                                                                ***      ****                 %%%**  **                 ",
"                                                                ***      ****                 %%%**  **                 ",
"                                                                         **  **               ***      ****             ",
"                                                                         **  **               ***      ****             "};
