/* XPM */
static char * Capybara_down_xpm[] = {
"64 64 10 1",
" 	c #C0D470",
".	c #4D2B32",
"+	c #341C27",
"@	c #A4C263",
"#	c #241527",
"$	c #7A4841",
"%	c #D2E077",
"&	c #E8EEAA",
"*	c #AD7757",
"=	c #090A14",
"                                                                ",
"                            .+++                                ",
"                          ....+++ @ @                           ",
"            @           .....+++++ @               @@@@         ",
"           @          ......++..+++               @@@@@@@       ",
"           @        ........+..++++++             @@@@@@@@      ",
"    @              ............+++.++++           @@@@@@@@      ",
"     @            ................++++++#         @@@@@@@@      ",
"     @    @      ........$.......+++++++######     @@@@@@       ",
"         @       .....$.$$.......+....+++++#####                ",
"         @      .......$$$...$$....$....++++#####        @@@@   ",
"               ....$...$$$..$$$...$$...+++++++####      @@@@@@  ",
"               ....$...$$..$$$...$$$..++..+#######      @@@@@@  ",
"              .....$$$.$$.$$$.$$$$$......++#   ###       @@@@   ",
"              ...$.$$$$$$.$$$$$$$$......+++     ##              ",
"              ...$$.$$$$$$$$$$$$$$$...++++                      ",
"              ...$$.$$.$$$$$$$$.$$.....++                       ",
"              ....$$$..$$$.$$$..$$.$$$.+                        ",
"              .....$$.$$$..$$..$$$$$$..+                        ",
"              .....$$$$$$.$$$$$$$$....++           %%%%%        ",
"              ......$$$$$$$$$$$$$$...+++          %%%%%%%       ",
"       &       .....$$.$$$$$$$$$$$$$..++&         %%%%%%%       ",
"      &        ........$$$$$$$.$$$$...++           %%%%%        ",
"   &  &        ........$$..$$$..$$...++                         ",
"    & &         *......$$.$$.$$.$..++++                  %%%%   ",
"    &     &     ***..........$....+++++                %%%%%%%  ",
"    &      &    **...................+++               %%%%%%%  ",
"           &    ***........$.....$$.++++          %%%   %%%%%   ",
"           &     **$$..$..$$.$...$....++         %%%%%          ",
"                 *$$$..$$$$..$.$$$.....+         %%%%%          ",
"                 ***$$..$$$$$$$$$..$$.++          %%%           ",
"                 **$$*$$$$$$$$$$$$$$...+                        ",
"                 **$**$$$$$$$$$$$$$$...++                       ",
"                  *$*$$$$$$$$$$$$$$..$.++###                    ",
"                  ***$$$$$$$$$$$$$$$$$..++#####                 ",
"            @     ***$$$$$$$$$$$$$$$$....+++####   @@@@         ",
"           @      ***$**$$$$$$$$$$$$$.....+++#### @@@@@@@       ",
"           @       ****$$$$$$$$$$$$$$$$...########@@@@@@@@      ",
"    @              ***$$$$$$$$$$$$..$...###    ###@@@@@@@@      ",
"     @             ***$**$$$$$$$$$$.....#       ##@@@@@@@@      ",
"     @    @       *********$$$$$$$$$$...           @@@@@@       ",
"         @        *****$*$$$$$$$$..$$..   @ @                   ",
"         @       ******$$$$$$$$$$$....     @             @@@@   ",
"                 ******$$$$$$$$$.$$..                   @@@@@@  ",
"                ******$$$$$$$$$$$...                    @@@@@@  ",
"                *$***$**$$$$$$..$...@ @                  @@@@   ",
"                *$*******$$$$$$....  @                          ",
"                **..**$$*$$$$$....                              ",
"                **++.*$$$$$$.$.++                               ",
"                *$**+.$$$$$$..++                                ",
"                *$$$$$$$$$$$$.+                                 ",
"                *$*$$$$$$$$$.++                    %%%%%        ",
"                **$$$#$$$$...++                   %%%%%%%       ",
"       &        **$$$#$.$$$..+        & &         %%%%%%%       ",
"      &          **$$#$...$.++         &           %%%%%        ",
"   &  &           $*$$$$....++                                  ",
"    & &           **$$.....+++                           %%%%   ",
"    &     &        *$...++++++                         %%%%%%%  ",
"    &      &        *..+++++++                         %%%%%%%  ",
"           &        *++++++#++                    %%%   %%%%%   ",
"           &         +=++++#++                   %%%%%          ",
"                     .==####+                    %%%%%          ",
"                      =+++++                      %%%           ",
"                                                                "};
