/* XPM */
static char * Capybara_left_xpm[] = {
"64 64 10 1",
" 	c #C0D470",
".	c #A4C263",
"+	c #4D2B32",
"@	c #AD7757",
"#	c #7A4841",
"$	c #341C27",
"%	c #241527",
"&	c #090A14",
"*	c #D2E077",
"=	c #E8EEAA",
"                                                                ",
"                                                                ",
"                                  . .                           ",
"            .            . .       .               ....         ",
"           .              .                       .......       ",
"           .                                      ........      ",
"    .                                             ........      ",
"     .                                            ........      ",
"     .    .                                        ......       ",
"         .                                . .                   ",
"         .         . .                     .             ....   ",
"                    .                                   ......  ",
"                                                        ......  ",
"                                    . .                  ....   ",
"                                     .     ++++++++             ",
"                                        +++++++++++++           ",
"          @@@@@@@@@@                @@@@++++++++++++++          ",
"         @@@###@@##@@@         @@@@@@@@++++++++###++++++        ",
"       @#@##@#@$+@@@@@@@   @@@@@@@#@@+@+++++++###++++++++       ",
"      @@@#####@$+@@@@@@@@@@@@@###@##++++++++###++####+++++      ",
"    @@########$+@@@@@@@@@@@@@@@@####++++++#########++++++++     ",
"  +$$++##%%%##+@@@#@@@@@@@@####@@#++++++++###++####++++++++     ",
" &&&$+++#########@@#@@@@##@@#####++++++++++###++##++++#+++++    ",
" $&$$$++#++######@@####@@##@#####+##+++###############++++++    ",
" $%$$$$+++######@@####@@@##########++++################++++++   ",
" $%$$$$+++#############@###########++++++###++###+++####+++++*  ",
" $%$$$$++##+###########@############+++#+####++####+++++++++++  ",
" $%%%$$$++++######################+##++#############++++++++++  ",
"  $$$$$$$$+++#++##################++++++#############+++++$$+++ ",
"   $$$$$$$$$$++#####################++#######+####+###+++++$$+$ ",
"           $$$$++#+###############+++++#++###++####+##++++++$$$ ",
"              $$+++################++++++#####++###++++++$$+$$$ ",
"               $++##+##############++++############++++++$$$$$  ",
"                ++++##+##########+###+++############++$$+$$$$   ",
"                 +++#++##+#######+++#+$++##++#++#+###++$$+$$    ",
"            .     ++++##++####+###++++$$++#++##++++###+$$$$     ",
"           .        ++##+#####+++#++$+$$+++++##++++++++$$$$     ",
"           .         +++++#++##+++++$$$$$++$++#++++++++$$$      ",
"    .                 ++++#++++++$+$$$$$$$$$$+++$++$++$$$$      ",
"     .                 +++++++$$$$$$$$   $$$$$$$$++$$+$$$.      ",
"     .    .             %%+++$$$               $$$++$$$%%       ",
"         .               %++$$%           . .   $$$+$$$%        ",
"         .         . .   %%$$%%            .     $$$$$$% ....   ",
"                    .     %$$%%                   %%$$%%......  ",
"                          %$%%                     %$%%%......  ",
"                          %%%%      . .            %$%%% ....   ",
"                          %%%%       .             %%%%         ",
"                         %%%%                     %%%%%         ",
"                        %%%%                     %%%%%          ",
"                        %%%                      %%%%           ",
"                                                                ",
"                           = =                     *****        ",
"                            =                     *******       ",
"       =                              = =         *******       ",
"      =                                =           *****        ",
"   =  =                                                         ",
"    = =                                                  ****   ",
"    =     =                                            *******  ",
"    =      =        = =                                *******  ",
"           =         =                            ***   *****   ",
"           =                                     *****          ",
"                                                 *****          ",
"                                                  ***           ",
"                                                                "};
