/* XPM */
static char * P_Player_up_xpm[] = {
"120 120 10 1",
" 	c #C0D470",
".	c #341C27",
"+	c #090A14",
"@	c #A4C263",
"#	c #241527",
"$	c #4D2B32",
"%	c #AD7757",
"&	c #7A4841",
"*	c #E8EEAA",
"=	c #D2E077",
"                                                                                                                        ",
"                                                                                                                        ",
"                                                                   ..........++                                         ",
"                                                                   ..........++                                         ",
"                                                                @@.########++++$$                                       ",
"                                                                @@.########++++$$                                       ",
"                      @@                       @@  @            ...##........++..               @@@@@@@                 ",
"                     @                           @@             ...##............%            @@@@@@@@@@@@@             ",
"                     @                           @@             ...##............%            @@@@@@@@@@@@@             ",
"                     @                                          .............$$$$%            @@@@@@@@@@@@@@@           ",
"                     @                                          .............$$$$%            @@@@@@@@@@@@@@@           ",
"       @@                                                       ...........$$$$$$&%%          @@@@@@@@@@@@@@@           ",
"       @@                                                       ...........$$$$$$&%%          @@@@@@@@@@@@@@@           ",
"         @@                                                     .....$$$$$$$$$$&&&%%%%        @@@@@@@@@@@@@@@           ",
"         @@                                                     .....$$$$$$$$$$&&&%%%%        @@@@@@@@@@@@@@@           ",
"         @@        @@                                           ...$$$$$$$$&&&&&&&%%&&          @@@@@@@@@@@             ",
"         @@        @@                                           ...$$$$$$$$&&&&&&&%%&&          @@@@@@@@@@@             ",
"                 @@                                             ...$$&&$$$$$$&&##&&&%%%%                                ",
"                 @@                                             ...$$&&$$$$$$&&##&&&%%%%                                ",
"                 @@                 @  @@                       ..$$$&&&&&&$$&&##&&&&&%%%%                 @@@@@@@      ",
"                 @@                 @  @@                       ..$$$&&&&&&$$&&##&&&&&%%%%                 @@@@@@@      ",
"                                     @@                       ....$$$$$&&&&&&&&##&&&&&%%%%               @@@@@@@@@@@    ",
"                                                              ....$&&&&&&&&&&&&&&&&&%%&&%%               @@@@@@@@@@@    ",
"                                                              ....$&&&&&&&&&&&&&&&&&%%&&%%               @@@@@@@@@@@    ",
"                                                              ..$$&&&&&&&&&&&&&&&&&&&&&&%%                 @@@@@@@      ",
"                                                              ..$$&&&&&&&&&&&&&&&&&&&&&&%%                 @@@@@@@      ",
"                                                            ....$$$&&&&&&&&&&&&$$.%%%%&&%%                              ",
"                                                            ....$$$&&&&&&&&&&&&$$.%%%%&&%%                              ",
"                                                          ....$$&&$&&&&&&&&&&&&%%$....%%%%                              ",
"                                                          ....$$&&$&&&&&&&&&&&&%%$....%%%%                              ",
"                                                        $$$$$$$$&&&&&&&&&%%&&&&%%%$$$$%%%%                              ",
"                                                        $$$$$$$$&&&&&&&&&%%&&&&%%%$$$$%%%%                              ",
"                                                      $$$$$$$$&&&&&&&&&&&%%%%%%%%%%%%%&&%%                              ",
"                                                      $$$$$$$$&&&&&&&&&&&%%%%%%%%%%%%%&&%%                              ",
"                                                    $$$$$$&&$$$$&&&&&&&&&&&%%%%&&%%%%%&&%%                              ",
"                                                    $$$$$$&&$$$$&&&&&&&&&&&%%%%&&%%%%%&&%%                              ",
"                                                   *$$$$$$&&&&&&&&&&&&&&&&&&&&&%%%%%%%%%%%      =========               ",
"                                                   $$$&&&&$$&&&&&&&&&&&&&&&&&%%%%%%%%%%%      =============             ",
"                                                   $$$&&&&$$&&&&&&&&&&&&&&&&&%%%%%%%%%%%      =============             ",
"             **                                  $$$$$$$&&&&&&&&&&&&&&&&&&&&&%%%%%%%%%%%      =============             ",
"             **                                  $$$$$$$&&&&&&&&&&&&&&&&&&&&&%%%%%%%%%%%      =============             ",
"           **                                  $$$$&&&$$$$&&&&&&&&&&&&&&&%%&&%%%%%%%%%          =========               ",
"           **                                  $$$$&&&$$$$&&&&&&&&&&&&&&&%%&&%%%%%%%%%          =========               ",
"      *    **                                $$$$$$&&&&&&&&&&&&&&&&&&%%%%%%%%%%%%%%%%%                                  ",
"      *    **                                $$$$$$&&&&&&&&&&&&&&&&&&%%%%%%%%%%%%%%%%%                                  ",
"       **  **             ####             ##$$$$$$$$$&&&&&&&&&&&&&&&&&&&%%%%&&%%%%%                       =======      ",
"       **  **             ####             ##$$$$$$$$$&&&&&&&&&&&&&&&&&&&%%%%&&%%%%%                       =======      ",
"       **          **     ######       ######$$$$$$&$$$$&&&&&&&&&&&&&&&&&&&&&&&%%%%%                   =============    ",
"       **          **     ######       ######$$$$$$&$$$$&&&&&&&&&&&&&&&&&&&&&&&%%%%%                   =============    ",
"       **            *    ###############$$$$$$&&&&&&&&&&&&&&&&&&&&&&&&&&&&&&%%%%%%%                   =============    ",
"       **            *    ###############$$$$$$&&&&&&&&&&&&&&&&&&&&&&&&&&&&&&%%%%%%%                   =============    ",
"                     *      ########.....$$$$$$$$$$&&&&&&&&&&&&&&&&&&&&&&&&%%%%&&%%%%%        =====      =========      ",
"                     *        #######......$$$$$$$$&&&&&&&&&&&&&&&&&&&&&&&&&&&&&&%%%%%      =========                   ",
"                     *        #######......$$$$$$$$&&&&&&&&&&&&&&&&&&&&&&&&&&&&&&%%%%%      =========                   ",
"                                #########....$$$$&&&&&&&&&&&&&&&&&&&&&&&&&&&&&&&&%%%%%      =========                   ",
"                                #########....$$$$&&&&&&&&&&&&&&&&&&&&&&&&&&&&&&&&%%%%%      =========                   ",
"                                     ######....$$&&$$$&&&&&&&&&&&&&&&&&&&&&&&&&&&%&&%%        =====                     ",
"                                     ######....$$&&$$$&&&&&&&&&&&&&&&&&&&&&&&&&&&%&&%%        =====                     ",
"                                           ....$$$$$&&&&&&&&&&&&&&&&&&&&&&&&&&&%%%&&%%%%                                ",
"                                           ....$$$$$&&&&&&&&&&&&&&&&&&&&&&&&&&&%%%&&%%%%                                ",
"                                             ..$$$$$&&&&&&&&&&&&&&&&&&&&&&&&&&&%%&&&%%%%                                ",
"                                             ..$$$$$&&&&&&&&&&&&&&&&&&&&&&&&&&&%%&&&%%%%                                ",
"                                             ....$$&&&$$$$&&&&&&&&&&&&&&&&&$$$$&&&%%%%%%                                ",
"                                             ....$$&&&$$$$&&&&&&&&&&&&&&&&&$$$$&&&%%%%%%                                ",
"                                             ..$$$$$$$$$&&&&&&$$&&$$$&&&&&&&&$$$$&&&&&%%                                ",
"                                             ..$$$$$$$$$&&&&&&$$&&$$$&&&&&&&&$$$$&&&&&%%                                ",
"                      @@                     ....$$$$$$$&&$$$$$$&&$&&&&$$$$&&$$$$&&&%%%%        @@@@@@@                 ",
"                     @                       .......$$&&&&$$$$$$$$$&&$$$$$$$$$$$$$$$%%%%%%    @@@@@@@@@@@@@             ",
"                     @                       .......$$&&&&$$$$$$$$$&&$$$$$$$$$$$$$$$%%%%%%    @@@@@@@@@@@@@             ",
"                     @                       ......$$$$$$$$$$$$$$$$$$$$$$$$$$$$$$$$$$$%%%%    @@@@@@@@@@@@@@@           ",
"                     @                       ......$$$$$$$$$$$$$$$$$$$$$$$$$$$$$$$$$$$%%%%    @@@@@@@@@@@@@@@           ",
"       @@                                      .........$$$$$$$$&&$$$$$$$$$$$$$$$$$$%%%%%%    @@@@@@@@@@@@@@@           ",
"       @@                                      .........$$$$$$$$&&$$$$$$$$$$$$$$$$$$%%%%%%    @@@@@@@@@@@@@@@           ",
"         @@                                    .......$$$$&&$$&&&&$&&&&$$&&&&$$$$$$$$$$$%%    @@@@@@@@@@@@@@@           ",
"         @@                                    .......$$$$&&$$&&&&$&&&&$$&&&&$$$$$$$$$$$%%    @@@@@@@@@@@@@@@           ",
"         @@        @@                          ....$$$$$&&&&$$$$&&&&&$$$$&&&&$$$$$$$$$$$$$$$    @@@@@@@@@@@             ",
"         @@        @@                          ....$$$$$&&&&$$$$&&&&&$$$$&&&&$$$$$$$$$$$$$$$    @@@@@@@@@@@             ",
"                 @@                          ....$$$$$&&&&&&&&$$&&&&&&&&&&&&&$$$$$$$$$$$$$$$                            ",
"                 @@                          ....$$$$$&&&&&&&&$$&&&&&&&&&&&&&$$$$$$$$$$$$$$$                            ",
"                 @@                 @  @@    ....$$$&&&&&&&&&&&&&&&&&&&&&&&&&$$&&&$$$$$$$$$$               @@@@@@@      ",
"                 @@                 @  @@    ....$$$&&&&&&&&&&&&&&&&&&&&&&&&&$$&&&$$$$$$$$$$               @@@@@@@      ",
"                                     @@      ......$$$$$&&&&&&&&&&&&&&&&&&&&&&&&&&$$$$$$$$$$$$           @@@@@@@@@@@    ",
"                                             ....$$$$$$$&&&&&&&&&&&&&&&$$&&&&&&&&&&&$$$$$$$$$$           @@@@@@@@@@@    ",
"                                             ....$$$$$$$&&&&&&&&&&&&&&&$$&&&&&&&&&&&$$$$$$$$$$           @@@@@@@@@@@    ",
"                                             ..$$$$&&&&&&&&&&&$$$$&&&$$$$&&&&&&$$&&&$$$$$$$$$$             @@@@@@@      ",
"                                             ..$$$$&&&&&&&&&&&$$$$&&&$$$$&&&&&&$$&&&$$$$$$$$$$             @@@@@@@      ",
"                                             ..$$&&&&&$$&&&&$$$$&&&&&$$&&&&&&$$$$&&&&&$$$$$$$$                          ",
"                                             ..$$&&&&&$$&&&&$$$$&&&&&$$&&&&&&$$$$&&&&&$$$$$$$$                          ",
"                                           ....$$$$$$$$$&&&&$$&&&&&&&&&&&&&&&$$&&&$$&&&&$$$$$$                          ",
"                                           ....$$$$$$$$$&&&&$$&&&&&&&&&&&&&&&$$&&&$$&&&&$$$$$$                          ",
"                                         ........$$$$$&&&&&&&&&&&&&&&&&&&&&&&&&&&&$$&&&&$$$$$$                          ",
"                                         ........$$$$$&&&&&&&&&&&&&&&&&&&&&&&&&&&&$$&&&&$$$$$$                          ",
"                          ####         ......$$$$$$$$$$$&&&&&&&&&&&&&&&$$&&&&&&&&&&&$$&&$$$$$$                          ",
"                          ####         ......$$$$$$$$$$$&&&&&&&&&&&&&&&$$&&&&&&&&&&&$$&&$$$$$$                          ",
"                          ######     ##....$$$$$$$$$$$&&&&&&&&&&$$&&&&&$$&&&&$$&&&&&$$$$$$$$$$                          ",
"                          ######     ##....$$$$$$$$$$$&&&&&&&&&&$$&&&&&$$&&&&$$&&&&&$$$$$$$$$$                          ",
"                          #############..$$$$....$$$&&&&&&$$$$$$&&&&&$$$$&&&&$$$$$&&$$$$$$$$    =========               ",
"                          ########.............$$$$$&&&&$$$$$$&&&&&$$$$&&&&&&$$$$$&&$$$$$$$$  =============             ",
"                          ########.............$$$$$&&&&$$$$$$&&&&&$$$$&&&&&&$$$$$&&$$$$$$$$  =============             ",
"             **             #########........$$$$$$$&&$$$$$$$$&&&&$$$$$&&&&&&$$$$$$$$$$$$$    =============             ",
"             **             #########........$$$$$$$&&$$$$$$$$&&&&$$$$$&&&&&&$$$$$$$$$$$$$    =============             ",
"           **                 #########..........$$$$$$$..$$$$$$$$$$$$$&&&&$$&&$$$$$$$$$        =========               ",
"           **                 #########..........$$$$$$$..$$$$$$$$$$$$$&&&&$$&&$$$$$$$$$        =========               ",
"      *    **                     ###########.............$$$$$$$$$$$$$&&$$$$$$$$$$$$$$$                                ",
"      *    **                     ###########.............$$$$$$$$$$$$$&&$$$$$$$$$$$$$$$                                ",
"       **  **                              ##...........$$$$$$$$$$$$$$$$$$$$$$$$$$$$$$                     =======      ",
"       **  **                              ##...........$$$$$$$$$$$$$$$$$$$$$$$$$$$$$$                     =======      ",
"       **          **                          .......$$......$$$$$$$$$$$$$$$$$$$$$$                   =============    ",
"       **          **                          .......$$......$$$$$$$$$$$$$$$$$$$$$$                   =============    ",
"       **            *               **  **        ...........$$$$.$$$$$$$$$$$$$$$                     =============    ",
"       **            *               **  **        ...........$$$$.$$$$$$$$$$$$$$$                     =============    ",
"                     *                 **             ......$$$$...$$$$$$$$$$$$               =====      =========      ",
"                     *                                  ..........$$$$$$$$$                 =========                   ",
"                     *                                  ..........$$$$$$$$$                 =========                   ",
"                                                          ......$$$$$$$                     =========                   ",
"                                                          ......$$$$$$$                     =========                   ",
"                                                            ......$                           =====                     ",
"                                                            ......$                           =====                     ",
"                                                                                                                        ",
"                                                                                                                        "};
