/* XPM */
static char * P_Player_up_xpm[] = {
"64 64 40 1",
" 	c #72751B",
".	c #807F72",
"+	c #7C7B6E",
"@	c #88867D",
"#	c #848279",
"$	c #62784A",
"%	c #171A0F",
"&	c #64604B",
"*	c #87867D",
"=	c #4E5332",
"-	c #243117",
";	c #87857C",
">	c #787B21",
",	c #8D8B83",
"'	c #89877F",
")	c #66624D",
"!	c #656C17",
"~	c #605C48",
"{	c #878679",
"]	c #8E8C83",
"^	c #8D8C83",
"/	c #8E8C84",
"(	c #8E8D84",
"_	c #7F8124",
":	c #8D8B82",
"<	c #6C6852",
"[	c #939189",
"}	c #686F16",
"|	c #8D4953",
"1	c #8A8A7D",
"2	c #8C8A81",
"3	c #8D8C82",
"4	c #FDFFD6",
"5	c #E6DAAD",
"6	c #7F8226",
"7	c #9F8965",
"8	c #88867E",
"9	c #302D21",
"0	c #88877E",
"a	c #828175",
"  ............    ++++++++++++    ............    ++++++++++++  ",
" @............@  #++++++++++++#  @............@  #++++++++++++# ",
" @............@  #++++++++++++#  @............@  #++++++++++++# ",
" @............@  #+$++++++++++#  @............$  #++++++++++++# ",
" @............@  #%$$+++++++++#  &&*.........$$% #++++++++++++# ",
" @............@  #%=$$++++++++#   *.........$$=% #++++++++++++# ",
" @............@  %===$$+++++++#   *........$$===%#++++++++++++# ",
" @............@  %===$$$++++++#  *........$$$===%#++++++++++++# ",
" @............@  %====$$$+++++#  *.......$$$====%#++++++++++++# ",
" @............@ %-=====$$$++++#  ;......$$$=====-%++++++++++++# ",
" @............@ %-======$$$$$$$$$$$$$$$$$$======-%++++++++++++# ",
" @............@ %-========$$$$$$$$$$$$$$========-%+>>+++++++++# ",
" @............@ %-==============================-%>>++++++++++@ ",
" &,,,,,,,,,,,,& %-==============================-%>>''''''''',  ",
"  &))))))))))&  %--===--===================--===-%!!&&&~~~~~&&  ",
"                %------=====================-----%              ",
"  {{{{{{{{{{{{  %----========================----%{{{{{{{{{{{{  ",
" ]{{{{{{{{{{{{^  %--==========================--%/{{{{{{{{{{{{/ ",
" ]{{{{{{{{{{{{]  %%============================--/{{{{{{{{{{{{/ ",
" ]{{{{{{{{{{{{]  %==============================%/{{{{{{{{{{{{/ ",
" ]{{{{{{{{{{{{] %================================%{{{{{{{{{{{{/ ",
" ]{{{{{{{{{{{{] %================================%{{{{{{{{{{{{/ ",
" ]{{{{{{{{{{{{]%-=================================%{{{{{{{{{{{] ",
" ]{{{{{{{{{{{{%---==============================---%{{{{{{{{{{] ",
" ]{{{{{{{{{{{%-----===========================------%{{{{{{{{{] ",
" ]{{{{{{{{{{%--------======================----------%{{{{{{{{] ",
" ]{{{{{{{{{{{%%----------==============------------%%{{{{{{{{{] ",
" ]{{{{{{{{{{{{]%%--------------------------------%%{{{>{{{{{{{^ ",
" ]{{{{{{{{{{{{]  %%----------------------------%%({{{__{{{{{{{: ",
" <[[[[[[[[[[[[)  &,%%%%%------------------%%%%%  &[[>_}[[[[[[[< ",
"  ))<<<<<<<)))    &&&&&&%%%------------%%%&&&&    &<>><<<<<<<<  ",
"                           %%%%%%%%%%%%             }}          ",
"  ............    ........%-||||||||||-%{{{{{{    ............  ",
" @............@  @.......%----||||||----%{{{{{1  *............@ ",
" @............@  @......%----------------%{{{{2  @............@ ",
" @............@  @.....%------------------%{{{:  @............@ ",
" @............@  @.....%------------------%{{{3  @............@ ",
" @............@  @....%====-------------===%{{^  @............@ ",
" @............@  @....%=======------=======%{{]  @............@ ",
" @............@  @...%======================%{]  @............@ ",
" @............@  @...%======================%{]  @............@ ",
" @............@  @..%=================44=====%]  @............, ",
" @............@  @..%================4554====%]  @...........,& ",
" @............@  @..%================5555====%]  *..........,&  ",
" @..........6>&  @.%-================5557====-%  ;.........,&   ",
" &,,,,,6>,,>6!   &,%-================555=====-%  &,,,,,,,,,&    ",
"  &&&&&!>>&>>     %--================555=====--%  &&&&&&&&&     ",
"        !>>>!    %--=================555======--%               ",
"  ......!>>!    %-===================555=======--%......'  ...  ",
" 8.......!>    %=====================555==-======-%.....' ....8 ",
" 8...........%%============-=========755===========%%..'&.....8 ",
" 8.........%%=======================7777=============%%& .....8 ",
" 8........%===========-===-======---7777====-==========% .....8 ",
" 8.......%====-======-==========-%%7777=========-=======%.....8 ",
" @........%%--===========--====-%97777--=====-===-====%%......@ ",
" @..........%%--===-====--==---%997779-%--====-===--%%........@ ",
" @............%%------------%%%97777779%%---------%%..........@ ",
" @............@}%%%------%%%999777777999%=-----%%%............@ ",
" @............@  #+%%%%%%9999999999999999%%%%%%  0............@ ",
" *............@  #+++++++97779,  *.97779.....,,  0............* ",
" ;............@  @++++++++999&&  *..999...,,>__  0a...........; ",
" &,,,,,,,,,,,,&  &,'''''''''&    &,,,,,,,,&&&_>> &,,,,,,,,,,,,& ",
"  &&&&&&&&&&&&    &&~~~~~~~&      &&&&&&&&   }>>  &&&&&&&&&&&&  ",
"                                              }>                "};
