/* XPM */
static char * P_Player_left_xpm[] = {
"64 64 55 1",
" 	c #72751B",
".	c #807F72",
"+	c #7C7B6E",
"@	c #88867D",
"#	c #848279",
"$	c #64604B",
"%	c #87867D",
"&	c #62784A",
"*	c #4E5332",
"=	c #171A0F",
"-	c #243117",
";	c #787B21",
">	c #7F8226",
",	c #838178",
"'	c #8D8B83",
")	c #605C48",
"!	c #89877F",
"~	c #656C17",
"{	c #66624D",
"]	c #878679",
"^	c #8E8C83",
"/	c #8D8C83",
"(	c #848377",
"_	c #9F8965",
":	c #8E8C84",
"<	c #86847B",
"[	c #E6DAAD",
"}	c #87857C",
"|	c #FDFFD6",
"1	c #796E67",
"2	c #3D3734",
"3	c #87867C",
"4	c #302D21",
"5	c #8E8D84",
"6	c #364922",
"7	c #84AE56",
"8	c #7F8124",
"9	c #8D8B82",
"0	c #6C6852",
"a	c #939189",
"b	c #686F16",
"c	c #6B3840",
"d	c #3A1F1D",
"e	c #8A8A7D",
"f	c #B34D5C",
"g	c #8D4953",
"h	c #8C8A81",
"i	c #8D8C82",
"j	c #BD7247",
"k	c #CD9757",
"l	c #80592D",
"m	c #AB7B44",
"n	c #88867E",
"o	c #88877E",
"p	c #828175",
"  ............    ++++++++++++    ............    ++++++++++++  ",
" @............@  #++++++++++++#  @............@  #++++++++++++# ",
" @............@  #++++++++++++#  @............@  #++++++++++++# ",
" @............@  #++++++++++++#  @............@  #++++++++++++# ",
" @............@  #++++++++++++#  $$%..........@  #++++++++++++# ",
" @............@  #++++++++++++#   %...........@  #++++++++++++# ",
" @............@  #++++++++++++#   %....&*&&&&&@  #++++++++++++# ",
" @............@  #++++++++++++#  %...&*&&****=@  #++++++++++++# ",
" @............@  #++++++++++++#  %.&*&&******=@  #++++++++++++# ",
" @............@  #++++++++++++#  &*&&*******-=@  #++++++++++++# ",
" @............@  #++++++++++++#&*&&********-=.@  #++++++++++++# ",
" @............@  #+++++++++&&&&&&*********--=;>  #+;;+++++++++# ",
" @............@  #+++++++&&&&&&&--******---=..>> ,;;++++++++++@ ",
" $''''''''''''$  )!!!!!&&&********-***-----=''~;;$;;!!!!!!!!!'  ",
"  ${{{{{{{{{{$    ))))&&************------=$$$~;; ~~$$$)))))$$  ",
"                     &&**************-----=    ~~               ",
"  ]]]]]]]]]]]]    ...&&&**************----=...    ]]]]]]]]]]]]  ",
" ^]]]]]]]]]]]]/  (....__&&**************--=...@  :]]]]]]]]]]]]: ",
" ^]]]]]]]]]]]]^  <..._[[__&&*************=....@  :]]]]]]]]]]]]: ",
" ^]]]]]]]]]]]]^  }..._|[[112&*************=...@  :]]]]]]]]]]]]: ",
" ^]]]]]]]]]]]]^  3...[44_[11&*************=...@  5]]]]]]]]]]]]: ",
" ^]]]]]]]]]]]]^  %...[[[[[112&************-=..@  5]]]]]]]]]]]]: ",
" ^]]]]]]]]]]]]^  @...[[_|1111&************-=..@  5]]]]]]]]]]]]^ ",
" ^]]]]]]]]]]]]^  @...[[6744[[&-************-=.@  5]]]]]]]]]]]]^ ",
" ^]]]]]]]]]]]]^  @...[[677|[[_&-*************=@  5]]]]]]]]]]]]^ ",
" ^]]]]]]]]]]]]^  @..[[[67|||[[_&-***********--=  5]]]]]]]]]]]]^ ",
" ^]]]]]]]]]]]]^  @.44|[[||[[[[__&-*********----= 5]]]]]]]]]]]]^ ",
" ^]]]]]]]]]]]]^  @._[[[[[[[[[__=-*********----=  5]]]];]]]]]]]/ ",
" ^]]]]]]]]]]]]^  @._[[[[[[[[__=-********-----=}  5]]]88]]]]]]]9 ",
" 0aaaaaaaaaaaa{  $''_[[[[[[__=-********----=='$  $aa;8baaaaaaa0 ",
"  {{0000000{{{    $$$_[[[[__=-******-----==$$$    $0;;00000000  ",
"                       ___==-----------==           bb          ",
"  ............    .......==============]]]]]]]    ............  ",
" @............@  @.......ccd=------=]]]]]]]]]]e  %............@ ",
" @............@  @......fgcd=-------=]]]]]]]]]h  @............@ ",
" @............@  @.....fgcd4=-------=]]]]]]]]]9  @............@ ",
" @............@  @.....gcd44=--*-----=]]]]]]]]i  @............@ ",
" @............@  @.....dd444=-**-*---=]]]]]]]]/  @............@ ",
" @............@  @......_[j4=-**-***--=]]]]]]]^  @............@ ",
" @............@  @......_kjl=-***-**-*=]]]]]]]^  @............@ ",
" @............@  @......_|mj4=***-*****=]]]]]]^  @............@ ",
" @............@  @......||kk4=*********=]]]]]]^  @............' ",
" @............@  @.....||[[j4=***-******=]]]]]^  @...........'$ ",
" @............@  @.....|[[_44=**********=]]]]]^  %..........'$  ",
" @..........>;$  @....||[__44=***********=]]]]^  }.........'$   ",
" $'''''>;'';>~   $''''_[[_4[4=************=aaa$  $'''''''''$    ",
"  $$$$$~;;$;;     $$$$_[_4[[_=*************=00    $$$$$$$$$     ",
"        ~;;;~         4[4_[[_=**************=      ||||         ",
"  ......~;;~         ++44_[[_=***************=    |[[[[|!  ...  ",
" n.......~;         +++++_[[_=***********-****=  |[[[[[[! ....n ",
" n...........      ++++++_[[_=***-**-**********= [[[[[[!$.....n ",
" n............@  #+++++++_[[=*************-****=[___.!!$ .....n ",
" n............@  #+++++++_1[=****-***-*****-**-=444!!$$  .....n ",
" n............#  ;+++++++_1[=****-***-******--=444b$$   ......n ",
" @............# 88+++++++21[=*****-***-****--=@ ;;b    .......@ ",
" @............#;8b++++++++12-*****-**------==.@ ;b   .........@ ",
" @............#;;#++++++++22--***-----=====...@    ...........@ ",
" @............@bb#++++++||[[------====........@  o............@ ",
" @............@  #+++++|____======............@  o............@ ",
" %............@  #+++++++++++!'  %...........''  o............% ",
" }............@  @++++++++++!$$  %........'';88  op...........} ",
" $''''''''''''$  $'!!!!!!!!!$    $''''''''$$$8;; $''''''''''''$ ",
"  $$$$$$$$$$$$    $$)))))))$      $$$$$$$$   b;;  $$$$$$$$$$$$  ",
"                                              b;                "};
