/* XPM */
static char * P_Player_right_xpm[] = {
"64 64 55 1",
" 	c #72751B",
".	c #807F72",
"+	c #7C7B6E",
"@	c #88867D",
"#	c #848279",
"$	c #64604B",
"%	c #87867D",
"&	c #62784A",
"*	c #4E5332",
"=	c #171A0F",
"-	c #243117",
";	c #87857C",
">	c #787B21",
",	c #7F8226",
"'	c #838178",
")	c #8D8B83",
"!	c #605C48",
"~	c #89877F",
"{	c #656C17",
"]	c #66624D",
"^	c #878679",
"/	c #8E8C83",
"(	c #8D8C83",
"_	c #848377",
":	c #9F8965",
"<	c #8E8C84",
"[	c #86847B",
"}	c #E6DAAD",
"|	c #FDFFD6",
"1	c #87867C",
"2	c #302D21",
"3	c #8E8D84",
"4	c #BD7247",
"5	c #CD9757",
"6	c #AB7B44",
"7	c #84AE56",
"8	c #364922",
"9	c #E2B179",
"0	c #80592D",
"a	c #BC8D57",
"b	c #7F8124",
"c	c #8D8B82",
"d	c #6C6852",
"e	c #939189",
"f	c #686F16",
"g	c #3A1F1D",
"h	c #6B3840",
"i	c #8A8A7D",
"j	c #8D4953",
"k	c #B34D5C",
"l	c #8C8A81",
"m	c #8D8C82",
"n	c #88867E",
"o	c #88877E",
"p	c #828175",
"  ............    ++++++++++++    ............    ++++++++++++  ",
" @............@  #++++++++++++#  @............@  #++++++++++++# ",
" @............@  #++++++++++++#  @............@  #++++++++++++# ",
" @............@  #++++++++++++#  @............@  #++++++++++++# ",
" @............@  #++++++++++++#  $$%..........@  #++++++++++++# ",
" @............@  #++++++++++++#   %...........@  #++++++++++++# ",
" @............@  #&&&&&*&+++++#   %...........@  #++++++++++++# ",
" @............@  #=****&&*&+++#  %............@  #++++++++++++# ",
" @............@  #=******&&*&+#  %............@  #++++++++++++# ",
" @............@  #=-*******&&*&  ;............@  #++++++++++++# ",
" @............@  #+=-********&&*&;............@  #++++++++++++# ",
" @............@  #+=--*********&&&&&&........>,  #+>>+++++++++# ",
" @............@  #++=---******--&&&&&&&.......,, '>>++++++++++@ ",
" $))))))))))))$  !~~=-----***-********&&&))))){>>$>>~~~~~~~~~)  ",
"  $]]]]]]]]]]$    !!!=------************&&$$$${>> {{$$$!!!!!$$  ",
"                     =-----**************&&    {{               ",
"  ^^^^^^^^^^^^    ...=----**************&&&...    ^^^^^^^^^^^^  ",
" /^^^^^^^^^^^^(  _...=--**************&&::....@  <^^^^^^^^^^^^< ",
" /^^^^^^^^^^^^/  [....=*************&&::}}:...@  <^^^^^^^^^^^^< ",
" /^^^^^^^^^^^^/  ;...=*************&:}}}}|:...@  <^^^^^^^^^^^^< ",
" /^^^^^^^^^^^^/  1...=*************&}}}:22}...@  3^^^^^^^^^^^^< ",
" /^^^^^^^^^^^^/  %..=-************&45}}}}}}...@  3^^^^^^^^^^^^< ",
" /^^^^^^^^^^^^/  @..=-************&655}|:}}...@  3^^^^^^^^^^^^/ ",
" /^^^^^^^^^^^^/  @.=-************-&562278}}...@  3^^^^^^^^^^^^/ ",
" /^^^^^^^^^^^^/  @=*************-&4559778}}...@  3^^^^^^^^^^^^/ ",
" /^^^^^^^^^^^^/  =--***********-&066aaa78}}}..@  3^^^^^^^^^^^^/ ",
" /^^^^^^^^^^^^/ =----*********-&44555599}}|22.@  3^^^^^^^^^^^^/ ",
" /^^^^^^^^^^^^/  =----*********-=0066}}}}}}}:.@  3^^^^>^^^^^^^( ",
" /^^^^^^^^^^^^/  @=-----********-=44}}}}}}}}:.;  3^^^bb^^^^^^^c ",
" deeeeeeeeeeee]  $)==----********-=::}}}}}}:))$  $ee>bfeeeeeeed ",
"  ]]ddddddd]]]    $$$==-----******-=::}}}}:$$$    $d>>dddddddd  ",
"                       ==-----------==:::           ff          ",
"  ............    .......==============^^^^^^^    ............  ",
" @............@  @..........=------=ghh^^^^^^^i  %............@ ",
" @............@  @.........=-------=ghjk^^^^^^l  @............@ ",
" @............@  @.........=-------=2ghjk^^^^^c  @............@ ",
" @............@  @........=-----*--=22ghj^^^^^m  @............@ ",
" @............@  @........=---*-**-=222gg^^^^^(  @............@ ",
" @............@  @.......=--***-**-=2:}:^^^^^^/  @............@ ",
" @............@  @.......=*-**-***-=::}:^^^^^^/  @............@ ",
" @............@  @......=*****-***=2:}|:^^^^^^/  @............@ ",
" @............@  @......=*********=2}}||^^^^^^/  @............) ",
" @............@  @.....=******-***=2:}}||^^^^^/  @...........)$ ",
" @............@  @.....=**********=22:}}|^^^^^/  %..........)$  ",
" @..........,>$  @....=***********=22::}||^^^^/  ;.........)$   ",
" $))))),>))>,{   $)))=************=2}2:}}:eeee$  $)))))))))$    ",
"  $$$$${>>$>>     $$=*************=:}}2:}:dddd    $$$$$$$$$     ",
"        {||||      =**************=:}}:2}2                      ",
"  ......|}}}}|    =***************=45}:22...      ......~  ...  ",
" n......}}}}}}|  =****-***********=066:.......   o......~ ....n ",
" n.......}}}}}} =**********-**-***=45}:.......@  o.....~$.....n ",
" n..........:::}=****-*************=}}:.......@  o>>.~~$ .....n ",
" n...........222=-**-*****-***-****=}}:.......@  bb~~$$  .....n ",
" n............222=--******-***-****=}}:.......@ >>f$$   ......n ",
" @............# bb=--****-***-*****=}}:.......@ >>f    .......@ ",
" @............#>bf+==------**-*****-:}........@ >f   .........@ ",
" @............#>>#+++=====-----***--::........@    ...........@ ",
" @............@ff#++++++++====------}}||......@  o............@ ",
" @............@  #++++++++++++======::::|.....@  o............@ ",
" %............@  #+++++++++++~)  %...........))  o............% ",
" ;............@  @++++++++++~$$  %........))>bb  op...........; ",
" $))))))))))))$  $)~~~~~~~~~$    $))))))))$$$b>> $))))))))))))$ ",
"  $$$$$$$$$$$$    $$!!!!!!!$      $$$$$$$$   f>>  $$$$$$$$$$$$  ",
"                                              f>                "};
